<svg id="Capa_1" enable-background="new 0 0 512 512" height="25" viewBox="0 0 512 512" width="25" xmlns="http://www.w3.org/2000/svg" xmlns:xlink="http://www.w3.org/1999/xlink"><linearGradient id="SVGID_1_" gradientUnits="userSpaceOnUse" x1="256" x2="256" y1="512" y2="60"><stop offset="0" stop-color="#a93aff"/><stop offset="1" stop-color="#ff81ff"/></linearGradient><linearGradient id="SVGID_2_" gradientUnits="userSpaceOnUse" x1="286" x2="286" y1="512" y2="0"><stop offset="0" stop-color="#ffbef9"/><stop offset="1" stop-color="#fff1ff"/></linearGradient><g><g><g><path d="m438.842 151-32.842 30v240l37.105 30 22.895-30v-240zm-77.842-91h-300c-8.291 0-15 6.709-15 15v422c0 8.291 6.709 15 15 15h300c8.291 0 15-6.709 15-15v-422c0-8.291-6.709-15-15-15z" fill="#fc4103"/></g></g><g><g><path d="m301 211h-180c-8.291 0-15 6.709-15 15s6.709 15 15 15h180c8.291 0 15-6.709 15-15s-6.709-15-15-15zm0 90h-180c-8.291 0-15 6.709-15 15s6.709 15 15 15h180c8.291 0 15-6.709 15-15s-6.709-15-15-15zm0 90h-180c-8.291 0-15 6.709-15 15s6.709 15 15 15h180c8.291 0 15-6.709 15-15s-6.709-15-15-15zm-165-271c8.284 0 15-6.716 15-15v-15h120v15c0 8.284 6.716 15 15 15s15-6.716 15-15v-60c0-8.286-6.716-15-15-15h-32.578c-6.182-17.461-22.852-30-42.422-30s-36.24 12.539-42.422 30h-32.578c-8.284 0-15 6.714-15 15v60c0 8.284 6.716 15 15 15zm315-30h-30c-8.291 0-15 6.709-15 15v76h60v-76c0-8.291-6.709-15-15-15zm-29.707 409.944c1.406 7.002 7.559 12.056 14.707 12.056s13.301-5.054 14.707-12.056l15.293-78.944h-60z" fill="url(#SVGID_2_)"/></g></g></g></svg>