<svg xmlns="http://www.w3.org/2000/svg" width="13.568" height="10.661" viewBox="0 0 13.568 10.661">
<g id="envelope" transform="translate(0 -54.82)">
<g id="Grupo_67" data-name="Grupo 67" transform="translate(0 54.82)">
<path id="Caminho_33" data-name="Caminho 33" d="M1.3,58.106q.257.182,1.552,1.079t1.984,1.382l.322.231q.246.178.409.288t.394.246a2.284,2.284,0,0,0,.435.2,1.2,1.2,0,0,0,.379.068h.015a1.2,1.2,0,0,0,.379-.068,2.286,2.286,0,0,0,.435-.2q.231-.136.394-.246t.409-.288q.246-.178.322-.231l3.543-2.461a3.6,3.6,0,0,0,.924-.931,2,2,0,0,0,.371-1.143,1.222,1.222,0,0,0-1.211-1.211H1.211a1.081,1.081,0,0,0-.9.394A1.528,1.528,0,0,0,0,56.2a1.769,1.769,0,0,0,.416,1.034A3.758,3.758,0,0,0,1.3,58.106Z" transform="translate(0 -54.82)" fill="#009FE3"></path>
<path id="Caminho_34" data-name="Caminho 34" d="M12.811,185.1q-2.483,1.681-3.77,2.612-.432.318-.7.5a4.322,4.322,0,0,1-.715.363,2.179,2.179,0,0,1-.833.185H6.776a2.179,2.179,0,0,1-.833-.185,4.324,4.324,0,0,1-.715-.363q-.269-.178-.7-.5-1.022-.75-3.763-2.612A4.011,4.011,0,0,1,0,184.437v6.012a1.166,1.166,0,0,0,.356.856,1.166,1.166,0,0,0,.856.356H12.357a1.215,1.215,0,0,0,1.211-1.212v-6.012A4.175,4.175,0,0,1,12.811,185.1Z" transform="translate(0 -181)" fill="#009FE3"></path>
</g>
</g>
</svg>