<svg id="Capa_1" enable-background="new 0 0 512 512" height="25" viewBox="0 0 512 512" width="25" xmlns="http://www.w3.org/2000/svg" xmlns:xlink="http://www.w3.org/1999/xlink"><linearGradient id="SVGID_1_" gradientUnits="userSpaceOnUse" x1="256" x2="256" y1="512" y2="0"><stop offset="0" stop-color="#addcff"/><stop offset=".5028" stop-color="#eaf6ff"/><stop offset="1" stop-color="#eaf6ff"/></linearGradient><linearGradient id="lg1"><stop offset="0" stop-color="#5558ff"/><stop offset="1" stop-color="#00c0ff"/></linearGradient><linearGradient id="SVGID_2_" gradientUnits="userSpaceOnUse" x1="253.746" x2="261.746" xlink:href="#lg1" y1="482.736" y2="50.736"/><linearGradient id="SVGID_3_" gradientUnits="userSpaceOnUse" x1="251.802" x2="259.802" xlink:href="#lg1" y1="482.7" y2="50.7"/><linearGradient id="SVGID_4_" gradientUnits="userSpaceOnUse" x1="89.208" x2="97.208" xlink:href="#lg1" y1="479.689" y2="47.689"/><linearGradient id="SVGID_5_" gradientUnits="userSpaceOnUse" x1="249.858" x2="257.858" xlink:href="#lg1" y1="482.664" y2="50.664"/><linearGradient id="SVGID_6_" gradientUnits="userSpaceOnUse" x1="414.396" x2="422.396" xlink:href="#lg1" y1="485.711" y2="53.711"/><linearGradient id="SVGID_7_" gradientUnits="userSpaceOnUse" x1="376.831" x2="384.831" xlink:href="#lg1" y1="485.015" y2="53.015"/><linearGradient id="SVGID_8_" gradientUnits="userSpaceOnUse" x1="120.776" x2="128.776" xlink:href="#lg1" y1="480.274" y2="48.274"/><linearGradient id="SVGID_9_" gradientUnits="userSpaceOnUse" x1="126.773" x2="134.773" xlink:href="#lg1" y1="480.385" y2="48.385"/><linearGradient id="SVGID_10_" gradientUnits="userSpaceOnUse" x1="382.828" x2="390.828" xlink:href="#lg1" y1="485.126" y2="53.126"/><g><path d="m512 256c0-141.549-115.554-256-256-256-140.962 0-256 115.05-256 256 0 141.547 115.552 256 256 256 140.962 0 256-115.049 256-256z" fill="url(#SVGID_1_)"/><path d="m256 482c-16.799 0-35.335-22.817-49.585-61.035-6.645-17.823-12.079-38.052-16.193-59.965h131.555c-4.113 21.914-9.548 42.143-16.193 59.965-14.249 38.218-32.785 61.035-49.584 61.035z" fill="url(#SVGID_2_)"/><path d="m185.555 331c-2.994-23.825-4.555-49.079-4.555-75s1.561-51.175 4.555-75h140.89c2.994 23.825 4.555 49.079 4.555 75s-1.561 51.175-4.555 75z" fill="url(#SVGID_3_)"/><path d="m30 256c0-26.28 4.524-51.52 12.809-75h112.542c-2.861 23.992-4.351 49.217-4.351 75s1.49 51.008 4.351 75h-112.542c-8.285-23.48-12.809-48.72-12.809-75z" fill="url(#SVGID_4_)"/><path d="m256 30c16.799 0 35.335 22.817 49.585 61.035 6.645 17.823 12.079 38.051 16.193 59.965h-131.556c4.113-21.914 9.547-42.143 16.193-59.965 14.25-38.218 32.786-61.035 49.585-61.035z" fill="url(#SVGID_5_)"/><path d="m356.649 181h112.542c8.285 23.48 12.809 48.72 12.809 75s-4.524 51.52-12.809 75h-112.542c2.861-23.993 4.351-49.218 4.351-75s-1.49-51.007-4.351-75z" fill="url(#SVGID_6_)"/><path d="m456.076 151h-103.832c-4.537-25.765-10.77-49.58-18.55-70.446-6.377-17.103-13.649-31.657-21.628-43.512 62.469 16.005 114.583 58.113 144.01 113.958z" fill="url(#SVGID_7_)"/><path d="m199.933 37.042c-7.978 11.855-15.251 26.409-21.628 43.512-7.78 20.866-14.013 44.681-18.55 70.446h-103.831c29.427-55.845 81.541-97.953 144.009-113.958z" fill="url(#SVGID_8_)"/><path d="m55.924 361h103.831c4.537 25.765 10.77 49.58 18.55 70.446 6.377 17.103 13.65 31.657 21.628 43.512-62.468-16.005-114.582-58.113-144.009-113.958z" fill="url(#SVGID_9_)"/><path d="m312.067 474.958c7.978-11.855 15.251-26.409 21.628-43.512 7.78-20.866 14.013-44.681 18.55-70.446h103.832c-29.428 55.845-81.542 97.953-144.01 113.958z" fill="url(#SVGID_10_)"/></g></svg>