<?xml version="1.0" encoding="UTF-8"?>
<svg xmlns="http://www.w3.org/2000/svg" xmlns:xlink="http://www.w3.org/1999/xlink" width="54pt" height="57.749997pt" viewBox="0 0 54 57.749997" version="1.2">
<defs>
<clipPath id="clip1">
  <path d="M 0.121094 35.84375 L 25.566406 35.84375 L 25.566406 57.5 L 0.121094 57.5 Z M 0.121094 35.84375 "/>
</clipPath>
<clipPath id="clip2">
  <path d="M 24 0 L 53.882812 0 L 53.882812 34 L 24 34 Z M 24 0 "/>
</clipPath>
<clipPath id="clip3">
  <path d="M 24 0 L 53.882812 0 L 53.882812 35 L 24 35 Z M 24 0 "/>
</clipPath>
</defs>
<g id="surface1">
<path style=" stroke:none;fill-rule:nonzero;fill:rgb(97.648621%,66.668701%,47.059631%);fill-opacity:1;" d="M 16.296875 35.132812 C 16.296875 35.132812 17.992188 32.484375 17.828125 31.429688 C 17.597656 29.976562 17.652344 21.417969 18.609375 19.445312 C 19.257812 18.105469 24.148438 13.777344 26.261719 12.507812 C 27.664062 11.664062 33.410156 9.328125 34.65625 8.921875 C 35.902344 8.515625 37.761719 10.117188 34.988281 13.328125 C 34.066406 14.402344 30.9375 15.761719 29.355469 16.089844 C 29 17.007812 26.308594 18.636719 26.394531 19.019531 C 27.261719 22.988281 29.160156 26.210938 28.769531 27.144531 C 27.679688 29.757812 22.871094 38.796875 22.871094 38.796875 L 16.296875 35.132812 "/>
<g clip-path="url(#clip1)" clip-rule="nonzero">
<path style=" stroke:none;fill-rule:nonzero;fill:rgb(12.939453%,31.369019%,54.119873%);fill-opacity:1;" d="M 13.742188 35.914062 L 0.136719 57.5 L 18.824219 57.5 L 25.445312 41.539062 L 13.742188 35.914062 "/>
</g>
<path style=" stroke:none;fill-rule:nonzero;fill:rgb(26.269531%,59.21936%,78.42865%);fill-opacity:1;" d="M 24.425781 41.050781 L 25.601562 38.601562 L 15.941406 33.957031 L 14.761719 36.40625 L 24.425781 41.050781 "/>
<path style=" stroke:none;fill-rule:nonzero;fill:rgb(97.648621%,69.018555%,8.628845%);fill-opacity:1;" d="M 16.039062 40.410156 C 16.519531 40.640625 16.71875 41.214844 16.488281 41.695312 C 16.261719 42.175781 15.683594 42.375 15.203125 42.144531 C 14.726562 41.914062 14.523438 41.339844 14.753906 40.859375 C 14.984375 40.382812 15.558594 40.179688 16.039062 40.410156 "/>
<path style=" stroke:none;fill-rule:nonzero;fill:rgb(97.648621%,69.018555%,8.628845%);fill-opacity:1;" d="M 14.640625 43.320312 C 15.121094 43.550781 15.320312 44.125 15.089844 44.601562 C 14.859375 45.082031 14.285156 45.285156 13.804688 45.054688 C 13.328125 44.824219 13.125 44.246094 13.355469 43.769531 C 13.585938 43.289062 14.160156 43.089844 14.640625 43.320312 "/>
<path style=" stroke:none;fill-rule:nonzero;fill:rgb(87.059021%,54.899597%,33.729553%);fill-opacity:1;" d="M 25.578125 20.929688 C 24.859375 20.644531 23.371094 21.738281 23.371094 21.738281 C 23.371094 21.738281 24.742188 20.128906 25.820312 19.957031 L 25.578125 20.929688 "/>
<g clip-path="url(#clip2)" clip-rule="nonzero">
<path style=" stroke:none;fill-rule:nonzero;fill:rgb(91.369629%,91.369629%,91.369629%);fill-opacity:1;" d="M 24.988281 29.914062 L 29.898438 0.257812 L 53.632812 4.183594 L 48.722656 33.839844 L 24.988281 29.914062 "/>
</g>
<g clip-path="url(#clip3)" clip-rule="nonzero">
<path style=" stroke:none;fill-rule:nonzero;fill:rgb(12.939453%,31.369019%,54.119873%);fill-opacity:1;" d="M 29.710938 -0.00390625 L 24.726562 30.101562 L 48.914062 34.101562 L 53.894531 3.996094 Z M 30.085938 0.523438 L 53.371094 4.371094 L 48.535156 33.578125 L 25.25 29.726562 L 30.085938 0.523438 "/>
</g>
<path style=" stroke:none;fill-rule:nonzero;fill:rgb(96.469116%,52.938843%,7.058716%);fill-opacity:1;" d="M 48.378906 28.234375 L 27.125 24.71875 L 30.875 2.0625 L 52.128906 5.578125 L 48.378906 28.234375 "/>
<path style=" stroke:none;fill-rule:nonzero;fill:rgb(3.138733%,2.749634%,4.309082%);fill-opacity:1;" d="M 42.402344 4.875 C 43.332031 5.027344 44.226562 5.476562 44.949219 6.097656 C 46.277344 7.238281 46.710938 8.660156 46.519531 10.332031 C 46.335938 11.941406 45.605469 13.863281 45.199219 15.390625 C 45.003906 16.128906 45.164062 16.722656 45.386719 17.46875 C 45.636719 18.292969 46.144531 18.898438 46.085938 19.804688 C 46.039062 20.515625 45.394531 20.871094 45.292969 21.503906 C 45.222656 21.9375 45.484375 22.957031 45.738281 23.308594 C 45.136719 22.878906 44.375 22.636719 43.738281 22.226562 C 43.0625 21.785156 42.457031 21.386719 41.765625 21.019531 C 40.992188 20.605469 34.375 21 34.40625 20.035156 C 34.4375 19.085938 35.492188 14.601562 36.167969 13.949219 C 36.867188 13.273438 36.476562 9.058594 37.101562 8.289062 C 37.757812 7.480469 40.542969 5.378906 40.542969 5.378906 C 40.542969 5.378906 41.582031 4.742188 42.402344 4.875 "/>
<path style=" stroke:none;fill-rule:nonzero;fill:rgb(80.778503%,58.428955%,43.528748%);fill-opacity:1;" d="M 43.816406 22.097656 L 38.113281 24.300781 L 33.429688 20.378906 L 36.566406 19.273438 L 38.070312 16.058594 L 41.003906 16.542969 L 41.125 20.042969 L 43.816406 22.097656 "/>
<path style=" stroke:none;fill-rule:nonzero;fill:rgb(87.059021%,65.098572%,47.059631%);fill-opacity:1;" d="M 44.4375 14.65625 C 44.117188 16.128906 41.300781 18.03125 39.875 18.421875 C 39.621094 18.492188 38.421875 18.269531 38.144531 18.066406 C 37.070312 17.28125 34.851562 14.398438 35.074219 13.058594 C 35.28125 11.800781 35.644531 9.027344 36.308594 7.929688 C 37.503906 5.957031 39.535156 5.214844 41.226562 5.492188 C 42.46875 5.699219 44.183594 7.226562 44.816406 8.675781 C 45.519531 10.296875 44.835938 12.816406 44.4375 14.65625 "/>
<path style=" stroke:none;fill-rule:nonzero;fill:rgb(91.369629%,91.369629%,91.369629%);fill-opacity:1;" d="M 41.550781 27.105469 C 42.03125 25.425781 42.878906 22.128906 42.371094 21.351562 C 40.382812 22.011719 37.351562 22.21875 35.453125 20.207031 C 34.558594 20.058594 34.378906 23.984375 34.34375 25.914062 L 41.550781 27.105469 "/>
<path style=" stroke:none;fill-rule:nonzero;fill:rgb(9.799194%,21.958923%,34.118652%);fill-opacity:1;" d="M 45.027344 27.679688 C 45.578125 25.898438 46.082031 23.914062 45.800781 23.363281 C 45.261719 22.308594 42.191406 20.859375 42.191406 20.859375 L 38.210938 26.554688 L 45.027344 27.679688 "/>
<path style=" stroke:none;fill-rule:nonzero;fill:rgb(9.799194%,21.958923%,34.118652%);fill-opacity:1;" d="M 37.675781 26.464844 L 35.300781 19.71875 C 35.300781 19.71875 31.402344 19.511719 31.0625 20.925781 C 30.894531 21.640625 30.695312 23.554688 30.539062 25.285156 L 37.675781 26.464844 "/>
<path style=" stroke:none;fill-rule:nonzero;fill:rgb(5.099487%,4.708862%,7.839966%);fill-opacity:1;" d="M 36.054688 12.863281 C 35.789062 14.464844 36.613281 15.179688 37.429688 16.492188 C 37.78125 17.054688 37.570312 17.886719 37.238281 18.535156 C 36.929688 19.132812 36.089844 19.207031 35.554688 19.515625 C 36.117188 19.03125 36.414062 18.421875 36.261719 17.683594 C 36.085938 16.835938 35.28125 16.636719 34.875 15.972656 C 34.503906 15.355469 34.394531 14.398438 34.546875 13.683594 C 34.636719 13.257812 34.824219 13.027344 35.15625 12.765625 C 35.378906 12.589844 35.941406 12.148438 36.042969 12.609375 "/>
<path style=" stroke:none;fill-rule:nonzero;fill:rgb(5.099487%,4.708862%,7.839966%);fill-opacity:1;" d="M 35.582031 16.636719 C 36.167969 16.890625 36.039062 18.171875 35.90625 18.671875 C 35.734375 19.3125 35.253906 19.796875 35.097656 20.46875 C 34.734375 22.046875 35.703125 23.21875 36.75 24.199219 C 35.433594 23.617188 33.867188 23.199219 33.171875 21.765625 C 32.433594 20.238281 33.214844 18.566406 33.820312 17.160156 C 34.191406 16.300781 34.703125 15.25 34.8125 14.28125 C 35.390625 14.867188 35.835938 15.449219 36.101562 16.265625 "/>
<path style=" stroke:none;fill-rule:nonzero;fill:rgb(5.099487%,4.708862%,7.839966%);fill-opacity:1;" d="M 41.765625 7.820312 C 41.605469 8.558594 42.492188 9.09375 42.972656 9.355469 C 43.574219 9.679688 44.058594 10.121094 44.214844 10.910156 C 44.511719 12.441406 44.144531 14.308594 43.878906 15.933594 C 43.652344 17.304688 42.707031 18.4375 42.863281 19.894531 C 42.941406 20.625 43.390625 21.328125 43.414062 22.035156 C 43.4375 22.683594 42.640625 24.4375 42.15625 24.96875 C 43.496094 24.015625 44.375 22.773438 44.582031 21.871094 C 44.902344 20.453125 44.429688 19.933594 44.535156 19.011719 C 44.640625 18.117188 44.625 17.253906 44.773438 16.355469 C 44.921875 15.433594 45.351562 14.632812 45.621094 13.757812 C 46.132812 12.085938 46.132812 10.625 44.90625 9.34375 C 44.339844 8.757812 43.664062 8.644531 43.152344 7.953125 C 42.929688 7.65625 42.796875 7.285156 42.425781 7.214844 C 42 7.136719 41.753906 7.472656 41.746094 7.929688 "/>
<path style=" stroke:none;fill-rule:nonzero;fill:rgb(6.269836%,6.269836%,10.198975%);fill-opacity:1;" d="M 40.714844 4.972656 C 42.925781 4.351562 44.425781 5.472656 45.484375 6.605469 C 46.628906 7.828125 46.761719 9.355469 46.585938 10.914062 C 46.492188 11.734375 46.257812 12.890625 46.011719 13.679688 C 45.765625 14.472656 45.421875 14.914062 45.277344 15.761719 C 45.007812 17.363281 46.554688 18.898438 46.082031 20.414062 C 45.902344 20.992188 45.566406 21.300781 45.585938 21.953125 C 45.605469 22.484375 45.625 23.039062 45.820312 23.554688 C 45.746094 23.242188 45.304688 23.097656 45.109375 22.84375 C 44.898438 22.566406 44.691406 22.140625 44.546875 21.785156 C 44.210938 20.957031 44.351562 20.085938 44.449219 19.230469 C 44.546875 18.382812 44.636719 17.59375 44.648438 16.777344 C 44.660156 15.925781 44.890625 15.25 45.136719 14.46875 C 45.402344 13.621094 45.863281 12.351562 45.769531 11.476562 C 45.6875 10.722656 45.117188 9.976562 44.535156 9.503906 C 43.929688 9.015625 43.230469 8.746094 42.6875 8.160156 C 42.1875 7.621094 41.65625 6.917969 41.355469 6.226562 C 41.1875 5.84375 40.714844 4.972656 40.714844 4.972656 "/>
<path style=" stroke:none;fill-rule:nonzero;fill:rgb(6.269836%,6.269836%,10.198975%);fill-opacity:1;" d="M 40.039062 9.054688 C 38.613281 9.15625 38.359375 8.351562 37.546875 9.351562 C 36.671875 10.425781 37.417969 10.9375 36.257812 12.542969 C 35.570312 13.492188 34.773438 13.972656 33.683594 14.09375 C 35.015625 13.171875 35.085938 11.332031 35.339844 9.800781 C 35.664062 7.847656 36.707031 5.921875 38.566406 5.042969 C 39.480469 4.609375 40.726562 4.582031 41.367188 4.992188 C 42.066406 5.4375 42.316406 6.046875 42.25 7.339844 C 42.1875 8.628906 40.695312 9.003906 40.039062 9.054688 "/>
<path style=" stroke:none;fill-rule:nonzero;fill:rgb(87.059021%,54.899597%,33.729553%);fill-opacity:1;" d="M 22.921875 25.003906 C 23.765625 23.773438 25.71875 18.519531 27.632812 17.847656 C 27.871094 17.761719 28.144531 17.710938 28.433594 17.691406 C 30.464844 17.5625 33.683594 19.574219 32.144531 21.398438 C 30.464844 23.390625 29.351562 24.597656 28.675781 26.21875 C 27.585938 28.835938 29.125 28.777344 27.667969 31.769531 C 26.445312 34.289062 24.667969 34.609375 24.195312 35.183594 C 23.148438 36.453125 22.078125 26.230469 22.921875 25.003906 "/>
<path style=" stroke:none;fill-rule:nonzero;fill:rgb(97.648621%,66.668701%,47.059631%);fill-opacity:1;" d="M 22.730469 25.414062 C 23.574219 24.183594 25.8125 19.445312 27.726562 18.769531 C 29.640625 18.09375 33.683594 19.625 31.925781 21.710938 C 30.246094 23.703125 29.445312 25.519531 28.769531 27.144531 C 27.679688 29.757812 29.21875 29.703125 27.761719 32.691406 C 26.535156 35.210938 24.761719 35.535156 24.285156 36.109375 C 23.242188 37.378906 21.890625 26.640625 22.730469 25.414062 "/>
</g>
</svg>
