<?xml version="1.0" encoding="UTF-8"?>
<svg xmlns="http://www.w3.org/2000/svg" xmlns:xlink="http://www.w3.org/1999/xlink" width="640.5pt" height="381.749989pt" viewBox="0 0 640.5 381.749989" version="1.2">
<defs>
<clipPath id="clip1">
  <path d="M 127 0.0234375 L 544 0.0234375 L 544 381.476562 L 127 381.476562 Z M 127 0.0234375 "/>
</clipPath>
<clipPath id="clip2">
  <path d="M 96.945312 0.0234375 L 514 0.0234375 L 514 381.476562 L 96.945312 381.476562 Z M 96.945312 0.0234375 "/>
</clipPath>
<clipPath id="clip3">
  <path d="M 512.957031 276.867188 L 330.769531 80.347656 L 330.769531 0.308594 C 303.511719 -0.972656 271.890625 2.597656 254.109375 7.574219 C 226.574219 15.28125 156.363281 66.9375 156.363281 66.9375 L 96.945312 66.9375 L 96.945312 248.390625 C 96.945312 248.390625 120.871094 268.125 154 294.636719 C 306.382812 429.433594 348.6875 367.597656 348.6875 367.597656 C 370.253906 388.429688 412.65625 373.347656 415.011719 349.09375 C 437.816406 364.007812 472.191406 343.65625 470.246094 317.363281 C 523.640625 323.398438 512.957031 276.867188 512.957031 276.867188 Z M 512.957031 276.867188 "/>
</clipPath>
<clipPath id="clip4">
  <path d="M 512.957031 276.867188 L 330.769531 80.347656 L 330.769531 0.308594 C 303.511719 -0.972656 271.890625 2.597656 254.109375 7.574219 C 226.574219 15.28125 156.363281 66.9375 156.363281 66.9375 L 96.945312 66.9375 L 96.945312 248.390625 C 96.945312 248.390625 120.871094 268.125 154 294.636719 C 306.382812 429.433594 348.6875 367.597656 348.6875 367.597656 C 370.253906 388.429688 412.65625 373.347656 415.011719 349.09375 C 437.816406 364.007812 472.191406 343.65625 470.246094 317.363281 C 523.640625 323.398438 512.957031 276.867188 512.957031 276.867188 "/>
</clipPath>
<linearGradient id="linear0" gradientUnits="userSpaceOnUse" x1="0.55662" y1="0" x2="2.980116" y2="0" gradientTransform="matrix(172.774885,0,0,172.635844,0.775113,190.900854)">
<stop offset="0" style="stop-color:rgb(90.59906%,69.398499%,55.699158%);stop-opacity:1;"/>
<stop offset="0.0078125" style="stop-color:rgb(90.786743%,69.398499%,55.699158%);stop-opacity:1;"/>
<stop offset="0.015625" style="stop-color:rgb(90.986633%,69.578552%,55.877686%);stop-opacity:1;"/>
<stop offset="0.0195312" style="stop-color:rgb(91.194153%,69.778442%,56.077576%);stop-opacity:1;"/>
<stop offset="0.0234375" style="stop-color:rgb(91.390991%,69.799805%,56.098938%);stop-opacity:1;"/>
<stop offset="0.03125" style="stop-color:rgb(91.583252%,69.987488%,56.286621%);stop-opacity:1;"/>
<stop offset="0.046875" style="stop-color:rgb(91.958618%,70.358276%,56.486511%);stop-opacity:1;"/>
<stop offset="0.0546875" style="stop-color:rgb(92.170715%,70.570374%,56.661987%);stop-opacity:1;"/>
<stop offset="0.0625" style="stop-color:rgb(92.315674%,70.753479%,56.861877%);stop-opacity:1;"/>
<stop offset="0.0664062" style="stop-color:rgb(92.633057%,70.953369%,57.066345%);stop-opacity:1;"/>
<stop offset="0.0703125" style="stop-color:rgb(92.834473%,70.999146%,57.234192%);stop-opacity:1;"/>
<stop offset="0.078125" style="stop-color:rgb(92.866516%,71.162415%,57.266235%);stop-opacity:1;"/>
<stop offset="0.0859375" style="stop-color:rgb(93.054199%,71.362305%,57.299805%);stop-opacity:1;"/>
<stop offset="0.09375" style="stop-color:rgb(93.400574%,71.54541%,57.409668%);stop-opacity:1;"/>
<stop offset="0.101562" style="stop-color:rgb(93.64624%,71.7453%,57.559204%);stop-opacity:1;"/>
<stop offset="0.109375" style="stop-color:rgb(93.847656%,71.946716%,57.746887%);stop-opacity:1;"/>
<stop offset="0.125" style="stop-color:rgb(94.186401%,72.251892%,57.946777%);stop-opacity:1;"/>
<stop offset="0.132812" style="stop-color:rgb(94.567871%,72.453308%,58.128357%);stop-opacity:1;"/>
<stop offset="0.140625" style="stop-color:rgb(94.828796%,72.621155%,58.329773%);stop-opacity:1;"/>
<stop offset="0.148437" style="stop-color:rgb(95.028687%,72.821045%,58.529663%);stop-opacity:1;"/>
<stop offset="0.15625" style="stop-color:rgb(95.228577%,72.898865%,58.729553%);stop-opacity:1;"/>
<stop offset="0.164062" style="stop-color:rgb(95.420837%,73.020935%,58.799744%);stop-opacity:1;"/>
<stop offset="0.171875" style="stop-color:rgb(95.735168%,73.220825%,58.912659%);stop-opacity:1;"/>
<stop offset="0.1875" style="stop-color:rgb(96.012878%,73.446655%,59.112549%);stop-opacity:1;"/>
<stop offset="0.25" style="stop-color:rgb(96.284485%,73.648071%,59.199524%);stop-opacity:1;"/>
<stop offset="0.5" style="stop-color:rgb(96.484375%,73.699951%,59.199524%);stop-opacity:1;"/>
<stop offset="1" style="stop-color:rgb(96.499634%,73.699951%,59.199524%);stop-opacity:1;"/>
</linearGradient>
<clipPath id="clip5">
  <path d="M 202 0.0234375 L 544 0.0234375 L 544 277.0625 L 202 277.0625 Z M 202 0.0234375 "/>
</clipPath>
<clipPath id="clip6">
  <path d="M 330.769531 80.347656 L 310.117188 80.347656 C 310.117188 80.347656 296.703125 76.519531 267.957031 101.410156 C 252.042969 115.191406 230.835938 113.710938 215.082031 109.652344 C 203.527344 106.667969 198.488281 93.082031 205.191406 83.214844 C 221.945312 58.566406 252.472656 16.59375 271.785156 7.574219 C 297.832031 -4.582031 359.101562 -0.175781 386.785156 7.574219 C 414.320312 15.28125 484.53125 66.9375 484.53125 66.9375 L 543.941406 66.9375 L 543.941406 248.390625 C 543.941406 248.390625 546.28125 250.5625 513.15625 277.0625 C 414.878906 169.011719 330.769531 80.347656 330.769531 80.347656 Z M 330.769531 80.347656 "/>
</clipPath>
<clipPath id="clip7">
  <path d="M 330.769531 80.347656 L 310.117188 80.347656 C 310.117188 80.347656 296.703125 76.519531 267.957031 101.410156 C 252.042969 115.191406 230.835938 113.710938 215.082031 109.652344 C 203.527344 106.667969 198.488281 93.082031 205.191406 83.214844 C 221.945312 58.566406 252.472656 16.59375 271.785156 7.574219 C 297.832031 -4.582031 359.101562 -0.175781 386.785156 7.574219 C 414.320312 15.28125 484.53125 66.9375 484.53125 66.9375 L 543.941406 66.9375 L 543.941406 248.390625 C 543.941406 248.390625 546.28125 250.5625 513.15625 277.0625 C 414.878906 169.011719 330.769531 80.347656 330.769531 80.347656 "/>
</clipPath>
<linearGradient id="linear1" gradientUnits="userSpaceOnUse" x1="-1.599145" y1="0" x2="0.501519" y2="0" gradientTransform="matrix(163.633491,0,0,163.50182,463.652584,138.542557)">
<stop offset="0" style="stop-color:rgb(59.999084%,37.998962%,25.498962%);stop-opacity:1;"/>
<stop offset="0.5" style="stop-color:rgb(59.999084%,37.998962%,25.498962%);stop-opacity:1;"/>
<stop offset="0.75" style="stop-color:rgb(59.999084%,37.998962%,25.498962%);stop-opacity:1;"/>
<stop offset="0.765625" style="stop-color:rgb(59.989929%,37.998962%,25.498962%);stop-opacity:1;"/>
<stop offset="0.78125" style="stop-color:rgb(59.790039%,37.985229%,25.485229%);stop-opacity:1;"/>
<stop offset="0.796875" style="stop-color:rgb(59.591675%,37.785339%,25.285339%);stop-opacity:1;"/>
<stop offset="0.8125" style="stop-color:rgb(59.391785%,37.599182%,25.099182%);stop-opacity:1;"/>
<stop offset="0.828125" style="stop-color:rgb(59.19342%,37.594604%,25.099182%);stop-opacity:1;"/>
<stop offset="0.84375" style="stop-color:rgb(58.99353%,37.445068%,25.099182%);stop-opacity:1;"/>
<stop offset="0.859375" style="stop-color:rgb(58.795166%,37.30011%,25.094604%);stop-opacity:1;"/>
<stop offset="0.875" style="stop-color:rgb(58.596802%,37.298584%,24.89624%);stop-opacity:1;"/>
<stop offset="0.890625" style="stop-color:rgb(58.401489%,37.107849%,24.700928%);stop-opacity:1;"/>
<stop offset="0.898438" style="stop-color:rgb(58.306885%,36.907959%,24.699402%);stop-opacity:1;"/>
<stop offset="0.90625" style="stop-color:rgb(58.110046%,36.898804%,24.699402%);stop-opacity:1;"/>
<stop offset="0.9375" style="stop-color:rgb(57.821655%,36.715698%,24.516296%);stop-opacity:1;"/>
<stop offset="0.96875" style="stop-color:rgb(57.481384%,36.515808%,24.316406%);stop-opacity:1;"/>
<stop offset="0.984375" style="stop-color:rgb(57.313538%,36.312866%,24.299622%);stop-opacity:1;"/>
<stop offset="1" style="stop-color:rgb(57.119751%,36.112976%,24.119568%);stop-opacity:1;"/>
</linearGradient>
<clipPath id="clip8">
  <path d="M 543.941406 51.945312 L 639.929688 51.945312 L 639.929688 277.0625 L 543.941406 277.0625 Z M 543.941406 51.945312 "/>
</clipPath>
<linearGradient id="linear2" gradientUnits="userSpaceOnUse" x1="0.0119432" y1="0" x2="1.792308" y2="0" gradientTransform="matrix(0.000000000000007749,-126.445214,126.547056,0.000000000000007743,591.93671,278.573867)">
<stop offset="0" style="stop-color:rgb(9.799194%,12.5%,16.899109%);stop-opacity:1;"/>
<stop offset="0.03125" style="stop-color:rgb(9.802246%,12.5%,16.902161%);stop-opacity:1;"/>
<stop offset="0.046875" style="stop-color:rgb(10.00061%,12.5%,17.100525%);stop-opacity:1;"/>
<stop offset="0.0625" style="stop-color:rgb(10.197449%,12.692261%,17.297363%);stop-opacity:1;"/>
<stop offset="0.125" style="stop-color:rgb(10.198975%,12.892151%,17.448425%);stop-opacity:1;"/>
<stop offset="0.140625" style="stop-color:rgb(10.198975%,13.095093%,17.599487%);stop-opacity:1;"/>
<stop offset="0.148438" style="stop-color:rgb(10.298157%,13.294983%,17.698669%);stop-opacity:1;"/>
<stop offset="0.15625" style="stop-color:rgb(10.498047%,13.299561%,17.89856%);stop-opacity:1;"/>
<stop offset="0.1875" style="stop-color:rgb(10.598755%,13.299561%,17.999268%);stop-opacity:1;"/>
<stop offset="0.203125" style="stop-color:rgb(10.598755%,13.301086%,18.000793%);stop-opacity:1;"/>
<stop offset="0.21875" style="stop-color:rgb(10.598755%,13.497925%,18.197632%);stop-opacity:1;"/>
<stop offset="0.25" style="stop-color:rgb(10.598755%,13.696289%,18.395996%);stop-opacity:1;"/>
<stop offset="0.265625" style="stop-color:rgb(10.795593%,13.699341%,18.59436%);stop-opacity:1;"/>
<stop offset="0.28125" style="stop-color:rgb(10.993958%,13.702393%,18.79425%);stop-opacity:1;"/>
<stop offset="0.289063" style="stop-color:rgb(10.998535%,13.803101%,18.798828%);stop-opacity:1;"/>
<stop offset="0.296875" style="stop-color:rgb(10.998535%,13.998413%,18.798828%);stop-opacity:1;"/>
<stop offset="0.3125" style="stop-color:rgb(10.998535%,14.097595%,18.798828%);stop-opacity:1;"/>
<stop offset="0.320313" style="stop-color:rgb(10.998535%,14.099121%,18.896484%);stop-opacity:1;"/>
<stop offset="0.328125" style="stop-color:rgb(10.998535%,14.099121%,19.096375%);stop-opacity:1;"/>
<stop offset="0.34375" style="stop-color:rgb(10.998535%,14.099121%,19.198608%);stop-opacity:1;"/>
<stop offset="0.351563" style="stop-color:rgb(11.099243%,14.099121%,19.198608%);stop-opacity:1;"/>
<stop offset="0.359375" style="stop-color:rgb(11.300659%,14.103699%,19.203186%);stop-opacity:1;"/>
<stop offset="0.375" style="stop-color:rgb(11.399841%,14.303589%,19.404602%);stop-opacity:1;"/>
<stop offset="0.4375" style="stop-color:rgb(11.399841%,14.498901%,19.793701%);stop-opacity:1;"/>
<stop offset="0.445313" style="stop-color:rgb(11.399841%,14.596558%,19.993591%);stop-opacity:1;"/>
<stop offset="0.453125" style="stop-color:rgb(11.401367%,14.796448%,19.999695%);stop-opacity:1;"/>
<stop offset="0.46875" style="stop-color:rgb(11.599731%,14.898682%,19.999695%);stop-opacity:1;"/>
<stop offset="0.484375" style="stop-color:rgb(11.79657%,14.898682%,20.004272%);stop-opacity:1;"/>
<stop offset="0.5" style="stop-color:rgb(11.799622%,14.898682%,20.204163%);stop-opacity:1;"/>
<stop offset="0.515625" style="stop-color:rgb(11.799622%,14.898682%,20.399475%);stop-opacity:1;"/>
<stop offset="0.523438" style="stop-color:rgb(11.799622%,14.99939%,20.399475%);stop-opacity:1;"/>
<stop offset="0.53125" style="stop-color:rgb(11.799622%,15.19928%,20.402527%);stop-opacity:1;"/>
<stop offset="0.546875" style="stop-color:rgb(11.799622%,15.299988%,20.602417%);stop-opacity:1;"/>
<stop offset="0.5625" style="stop-color:rgb(11.993408%,15.299988%,20.797729%);stop-opacity:1;"/>
<stop offset="0.625" style="stop-color:rgb(12.193298%,15.299988%,20.799255%);stop-opacity:1;"/>
<stop offset="0.75" style="stop-color:rgb(12.199402%,15.299988%,20.799255%);stop-opacity:1;"/>
<stop offset="1" style="stop-color:rgb(12.199402%,15.299988%,20.799255%);stop-opacity:1;"/>
</linearGradient>
<clipPath id="clip9">
  <path d="M 0.996094 51.945312 L 96.980469 51.945312 L 96.980469 277.0625 L 0.996094 277.0625 Z M 0.996094 51.945312 "/>
</clipPath>
<linearGradient id="linear3" gradientUnits="userSpaceOnUse" x1="0.0119135" y1="0" x2="1.792278" y2="0" gradientTransform="matrix(0.000000000000007749,-126.445214,126.547056,0.000000000000007743,48.990622,278.570116)">
<stop offset="0" style="stop-color:rgb(9.799194%,12.5%,16.899109%);stop-opacity:1;"/>
<stop offset="0.03125" style="stop-color:rgb(9.80072%,12.5%,16.900635%);stop-opacity:1;"/>
<stop offset="0.0390625" style="stop-color:rgb(9.901428%,12.5%,17.001343%);stop-opacity:1;"/>
<stop offset="0.046875" style="stop-color:rgb(10.096741%,12.5%,17.198181%);stop-opacity:1;"/>
<stop offset="0.0625" style="stop-color:rgb(10.195923%,12.692261%,17.297363%);stop-opacity:1;"/>
<stop offset="0.125" style="stop-color:rgb(10.198975%,12.892151%,17.448425%);stop-opacity:1;"/>
<stop offset="0.140625" style="stop-color:rgb(10.198975%,13.093567%,17.599487%);stop-opacity:1;"/>
<stop offset="0.148438" style="stop-color:rgb(10.298157%,13.293457%,17.697144%);stop-opacity:1;"/>
<stop offset="0.15625" style="stop-color:rgb(10.498047%,13.299561%,17.897034%);stop-opacity:1;"/>
<stop offset="0.1875" style="stop-color:rgb(10.598755%,13.299561%,17.999268%);stop-opacity:1;"/>
<stop offset="0.203125" style="stop-color:rgb(10.598755%,13.301086%,18.000793%);stop-opacity:1;"/>
<stop offset="0.21875" style="stop-color:rgb(10.598755%,13.497925%,18.197632%);stop-opacity:1;"/>
<stop offset="0.25" style="stop-color:rgb(10.598755%,13.696289%,18.395996%);stop-opacity:1;"/>
<stop offset="0.265625" style="stop-color:rgb(10.794067%,13.699341%,18.59436%);stop-opacity:1;"/>
<stop offset="0.28125" style="stop-color:rgb(10.993958%,13.702393%,18.79425%);stop-opacity:1;"/>
<stop offset="0.296875" style="stop-color:rgb(10.998535%,13.900757%,18.798828%);stop-opacity:1;"/>
<stop offset="0.3125" style="stop-color:rgb(10.998535%,14.097595%,18.798828%);stop-opacity:1;"/>
<stop offset="0.320312" style="stop-color:rgb(10.998535%,14.099121%,18.896484%);stop-opacity:1;"/>
<stop offset="0.328125" style="stop-color:rgb(10.998535%,14.099121%,19.096375%);stop-opacity:1;"/>
<stop offset="0.34375" style="stop-color:rgb(10.998535%,14.099121%,19.198608%);stop-opacity:1;"/>
<stop offset="0.351562" style="stop-color:rgb(11.099243%,14.099121%,19.198608%);stop-opacity:1;"/>
<stop offset="0.359375" style="stop-color:rgb(11.300659%,14.103699%,19.203186%);stop-opacity:1;"/>
<stop offset="0.375" style="stop-color:rgb(11.399841%,14.303589%,19.404602%);stop-opacity:1;"/>
<stop offset="0.4375" style="stop-color:rgb(11.399841%,14.498901%,19.793701%);stop-opacity:1;"/>
<stop offset="0.445312" style="stop-color:rgb(11.399841%,14.596558%,19.993591%);stop-opacity:1;"/>
<stop offset="0.453125" style="stop-color:rgb(11.401367%,14.796448%,19.999695%);stop-opacity:1;"/>
<stop offset="0.46875" style="stop-color:rgb(11.598206%,14.898682%,19.999695%);stop-opacity:1;"/>
<stop offset="0.484375" style="stop-color:rgb(11.79657%,14.898682%,20.004272%);stop-opacity:1;"/>
<stop offset="0.5" style="stop-color:rgb(11.799622%,14.898682%,20.204163%);stop-opacity:1;"/>
<stop offset="0.515625" style="stop-color:rgb(11.799622%,14.898682%,20.399475%);stop-opacity:1;"/>
<stop offset="0.523437" style="stop-color:rgb(11.799622%,14.997864%,20.399475%);stop-opacity:1;"/>
<stop offset="0.53125" style="stop-color:rgb(11.799622%,15.19928%,20.402527%);stop-opacity:1;"/>
<stop offset="0.546875" style="stop-color:rgb(11.799622%,15.299988%,20.602417%);stop-opacity:1;"/>
<stop offset="0.5625" style="stop-color:rgb(11.993408%,15.299988%,20.797729%);stop-opacity:1;"/>
<stop offset="0.625" style="stop-color:rgb(12.193298%,15.299988%,20.799255%);stop-opacity:1;"/>
<stop offset="0.75" style="stop-color:rgb(12.199402%,15.299988%,20.799255%);stop-opacity:1;"/>
<stop offset="1" style="stop-color:rgb(12.199402%,15.299988%,20.799255%);stop-opacity:1;"/>
</linearGradient>
</defs>
<g id="surface1">
<g clip-path="url(#clip1)" clip-rule="nonzero">
<path style=" stroke:none;fill-rule:nonzero;fill:rgb(59.999084%,38.038635%,25.489807%);fill-opacity:1;" d="M 310.117188 80.347656 C 310.117188 80.347656 296.703125 76.519531 267.957031 101.410156 C 252.042969 115.191406 230.835938 113.710938 215.082031 109.652344 C 203.527344 106.667969 198.488281 93.082031 205.191406 83.214844 C 221.945312 58.566406 252.472656 16.59375 271.785156 7.574219 C 297.832031 -4.582031 359.101562 -0.175781 386.785156 7.574219 C 414.320312 15.28125 484.53125 66.9375 484.53125 66.9375 L 543.941406 66.9375 L 543.941406 248.390625 C 543.941406 248.390625 519.441406 267.554688 486.316406 294.066406 C 333.925781 428.859375 292.199219 367.597656 292.199219 367.597656 C 270.640625 388.429688 228.230469 373.347656 225.882812 349.09375 C 203.078125 364.007812 168.703125 343.65625 170.648438 317.363281 C 123.734375 326.507812 127.9375 273.582031 127.9375 273.582031 L 310.117188 80.347656 "/>
</g>
<g clip-path="url(#clip2)" clip-rule="nonzero">
<g clip-path="url(#clip3)" clip-rule="nonzero">
<g clip-path="url(#clip4)" clip-rule="nonzero">
<path style=" stroke:none;fill-rule:nonzero;fill:url(#linear0);" d="M 96.945312 0.0234375 L 96.945312 381.476562 L 515.664062 381.476562 L 515.664062 0.0234375 Z M 96.945312 0.0234375 "/>
</g>
</g>
</g>
<g clip-path="url(#clip5)" clip-rule="nonzero">
<g clip-path="url(#clip6)" clip-rule="nonzero">
<g clip-path="url(#clip7)" clip-rule="nonzero">
<path style=" stroke:none;fill-rule:nonzero;fill:url(#linear1);" d="M 201.980469 0.0234375 L 201.980469 277.0625 L 545.71875 277.0625 L 545.71875 0.0234375 Z M 201.980469 0.0234375 "/>
</g>
</g>
</g>
<g clip-path="url(#clip8)" clip-rule="nonzero">
<path style=" stroke:none;fill-rule:nonzero;fill:url(#linear2);" d="M 543.941406 277.0625 L 639.929688 277.0625 L 639.929688 51.945312 L 543.941406 51.945312 Z M 543.941406 277.0625 "/>
</g>
<g clip-path="url(#clip9)" clip-rule="nonzero">
<path style=" stroke:none;fill-rule:nonzero;fill:url(#linear3);" d="M 0.996094 277.0625 L 96.980469 277.0625 L 96.980469 51.945312 L 0.996094 51.945312 Z M 0.996094 277.0625 "/>
</g>
<path style=" stroke:none;fill-rule:nonzero;fill:rgb(66.668701%,44.709778%,30.979919%);fill-opacity:1;" d="M 470.246094 317.363281 C 470.246094 317.363281 468.332031 315.921875 465.082031 313.289062 C 461.875 310.613281 457.171875 306.917969 451.757812 302.246094 C 440.851562 292.972656 426.683594 280.214844 412.855469 267.113281 C 399.039062 253.992188 385.566406 240.5 375.71875 230.113281 C 370.765625 224.953125 366.820312 220.464844 363.972656 217.40625 C 361.164062 214.3125 359.621094 212.480469 359.621094 212.480469 C 359.621094 212.480469 361.527344 213.933594 364.773438 216.566406 C 367.972656 219.25 372.660156 222.957031 378.089844 227.621094 C 388.976562 236.910156 403.167969 249.636719 417.007812 262.738281 C 430.832031 275.847656 444.324219 289.320312 454.164062 299.710938 C 459.117188 304.871094 463.046875 309.375 465.894531 312.429688 C 468.699219 315.53125 470.246094 317.363281 470.246094 317.363281 "/>
<path style=" stroke:none;fill-rule:nonzero;fill:rgb(66.668701%,44.709778%,30.979919%);fill-opacity:1;" d="M 414.929688 348.949219 C 414.929688 348.949219 413.277344 347.703125 410.484375 345.4375 C 407.726562 343.128906 403.675781 339.953125 399.015625 335.925781 C 389.632812 327.945312 377.429688 316.96875 365.519531 305.6875 C 353.625 294.386719 342.035156 282.765625 333.558594 273.832031 C 329.296875 269.386719 325.890625 265.523438 323.441406 262.890625 C 321.027344 260.222656 319.691406 258.65625 319.691406 258.65625 C 319.691406 258.65625 321.335938 259.902344 324.128906 262.167969 C 326.890625 264.476562 330.925781 267.671875 335.589844 271.691406 C 344.96875 279.679688 357.183594 290.640625 369.101562 301.917969 C 381.003906 313.199219 392.609375 324.796875 401.085938 333.742188 C 405.347656 338.1875 408.738281 342.0625 411.1875 344.695312 C 413.601562 347.363281 414.929688 348.949219 414.929688 348.949219 "/>
<path style=" stroke:none;fill-rule:nonzero;fill:rgb(66.668701%,44.709778%,30.979919%);fill-opacity:1;" d="M 347.910156 366.816406 C 347.910156 366.816406 346.796875 365.972656 344.894531 364.425781 C 343.023438 362.863281 340.265625 360.699219 337.101562 357.964844 C 330.71875 352.539062 322.4375 345.085938 314.34375 337.414062 C 306.265625 329.738281 298.382812 321.851562 292.625 315.773438 C 289.726562 312.753906 287.414062 310.128906 285.75 308.347656 C 284.113281 306.527344 283.203125 305.457031 283.203125 305.457031 C 283.203125 305.457031 284.320312 306.308594 286.21875 307.847656 C 288.089844 309.417969 290.832031 311.585938 294.003906 314.320312 C 300.378906 319.746094 308.679688 327.195312 316.769531 334.855469 C 324.863281 342.527344 332.753906 350.40625 338.503906 356.484375 C 341.402344 359.503906 343.707031 362.136719 345.371094 363.925781 C 347.015625 365.738281 347.910156 366.816406 347.910156 366.816406 "/>
<path style=" stroke:none;fill-rule:nonzero;fill:rgb(67.83905%,72.549438%,79.60968%);fill-opacity:1;" d="M 600.285156 119.679688 C 597.953125 119.679688 596.058594 117.789062 596.058594 115.457031 C 596.058594 113.125 597.953125 111.234375 600.285156 111.234375 C 602.617188 111.234375 604.511719 113.125 604.511719 115.457031 C 604.511719 117.789062 602.617188 119.679688 600.285156 119.679688 Z M 583.59375 119.679688 C 581.261719 119.679688 579.367188 117.789062 579.367188 115.457031 C 579.367188 113.125 581.261719 111.234375 583.59375 111.234375 C 585.925781 111.234375 587.820312 113.125 587.820312 115.457031 C 587.820312 117.789062 585.925781 119.679688 583.59375 119.679688 Z M 591.9375 92.371094 C 579.175781 92.371094 568.832031 102.707031 568.832031 115.457031 C 568.832031 128.207031 579.175781 138.542969 591.9375 138.542969 C 604.695312 138.542969 615.039062 128.207031 615.039062 115.457031 C 615.039062 102.707031 604.695312 92.371094 591.9375 92.371094 "/>
<path style=" stroke:none;fill-rule:nonzero;fill:rgb(67.83905%,72.549438%,79.60968%);fill-opacity:1;" d="M 57.339844 119.679688 C 55.003906 119.679688 53.113281 117.789062 53.113281 115.457031 C 53.113281 113.125 55.003906 111.234375 57.339844 111.234375 C 59.671875 111.234375 61.566406 113.125 61.566406 115.457031 C 61.566406 117.789062 59.671875 119.679688 57.339844 119.679688 Z M 40.644531 119.679688 C 38.3125 119.679688 36.417969 117.789062 36.417969 115.457031 C 36.417969 113.125 38.3125 111.234375 40.644531 111.234375 C 42.980469 111.234375 44.871094 113.125 44.871094 115.457031 C 44.871094 117.789062 42.980469 119.679688 40.644531 119.679688 Z M 48.988281 92.371094 C 36.230469 92.371094 25.882812 102.707031 25.882812 115.457031 C 25.882812 128.207031 36.230469 138.542969 48.988281 138.542969 C 61.746094 138.542969 72.09375 128.207031 72.09375 115.457031 C 72.09375 102.707031 61.746094 92.371094 48.988281 92.371094 "/>
</g>
</svg>
