<svg id="Capa_1" enable-background="new 0 0 512 512" height="25" viewBox="0 0 512 512" width="25" xmlns="http://www.w3.org/2000/svg" xmlns:xlink="http://www.w3.org/1999/xlink"><linearGradient id="SVGID_1_" gradientUnits="userSpaceOnUse" x1="256" x2="256" y1="406" y2="16"><stop offset="0" stop-color="#00b59c"/><stop offset="1" stop-color="#9cffac"/></linearGradient><linearGradient id="SVGID_2_" gradientUnits="userSpaceOnUse" x1="256" x2="256" y1="496" y2="91"><stop offset="0" stop-color="#c3ffe8"/><stop offset=".9973" stop-color="#f0fff4"/></linearGradient><g><g><g><path d="m497 16h-482c-8.401 0-15 6.599-15 15v330c0 8.399 6.599 15 15 15h166l75 30 75-30h166c8.401 0 15-6.601 15-15v-330c0-8.401-6.599-15-15-15z" fill="#45AD4C"/></g></g><g><g><path d="m369.401 468.399-8.701-5.699c-24.602-16.201-29.7-20.101-29.7-35.402v-51.298h-150v51.299c0 15.601-7.5 21.301-29.399 35.402l-9.001 5.698c-5.398 3.9-7.8 10.501-5.999 17.1 1.801 6.301 7.8 10.501 14.399 10.501h210c6.599 0 12.297-4.2 14.399-10.501 1.802-6.299-.6-13.2-5.998-17.1zm-113.401-167.399c12.012 0 23.789-2.007 35.039-5.991 7.793-2.754 11.895-11.323 9.141-19.131-2.783-7.852-11.338-11.953-19.16-9.141-7.999 2.827-16.436 4.263-25.02 4.263-41.367 0-75-33.647-75-75s33.633-75 75-75 75 33.647 75 75c0 8.276-6.738 15-15 15s-15-6.724-15-15c0-24.814-20.186-45-45-45s-45 20.186-45 45 20.186 45 45 45c11.565 0 22.02-4.508 30-11.704 7.98 7.196 18.435 11.704 30 11.704 24.814 0 45-20.186 45-45 0-57.891-47.109-105-105-105s-105 47.109-105 105 47.109 105 105 105zm0-90c-8.262 0-15-6.724-15-15s6.738-15 15-15 15 6.724 15 15-6.738 15-15 15z" fill="url(#SVGID_2_)"/></g></g></g></svg>