<svg id="Capa_1" enable-background="new 0 0 512 512" height="512" viewBox="0 0 512 512" width="512" xmlns="http://www.w3.org/2000/svg"><g><g><path d="m344.906 441.802 18.663-47.144-44.308-113.444-2.998-.675h-120.526l-29.768 6.701-17.151 106.579 6.318 35.895 100.864 20.341z" fill="#ffd064"/><path d="m346.031 287.24-26.77-6.026c-1.413 3.741-2.196 7.791-2.196 12.027 0 11.377 5.58 21.445 14.146 27.636-4.436 4.823-7.147 11.258-7.147 18.327 0 8.799 4.199 26.615 10.7 31.562-2.176 3.741-3.451 8.121-3.451 12.531 0 9.151 3.335 19.565 8.91 25.972l-3.727 22.534-16.156 1.656c-5.838-23.712-15.762-52.247-24.675-69.983-4.916-9.782-19.665-6.285-19.665 4.663l-20 71.916-100.864-10.34 6.82 38.743h188.088l13.138-74.638z" fill="#ebb34c"/><path d="m296.438 365.037c13.334-6.566 19.826-16.77 19.826-28.329 0-15.471 0-40.561 0-51.169l-101.328-15.915v.595c0 3.508-2.431 6.547-5.853 7.317l-13.346 3.004v56.169c0 20.02 19.427 35.996 60.263 35.996 7 0 13.356-.48 19.108-1.359z" fill="#e0aea2"/><g fill="#d79b8c"><path d="m295.665 363.475c-4.916-9.782-19.665-6.285-19.665 4.663l-.892 3.207c8.429-1.288 15.528-3.453 21.33-6.309-.259-.528-.516-1.05-.773-1.561z"/><path d="m302.918 277.535c-3.422-.77-5.853-3.809-5.853-7.317v-25.13h-82.129v24.535c9.311 9.27 20.466 16.811 33.115 21.941 9.09 3.687 18.551 6.015 27.949 6.015s18.859-2.328 27.949-6.015c4.283-1.737 8.385-3.764 12.314-6.026 0-3.119 0-4.999 0-4.999z"/><path d="m347.673 128.285c16.986 0 28 8.586 28 27.388 0 13.469-11.37 34.919-31.022 34.919h-177.302c-19.652 0-31.022-21.45-31.022-34.919 0-18.802 11.014-27.388 28-27.388z"/></g><path d="m299.836 494.5h158.556c-6.33-56.559-52.198-135.804-52.198-135.804-5.291-21.91-25.249-48.95-25.249-48.95l-9.862 11.131-3.552 39.889-3.962 33.892 17.284 37.519 7.103 4.236-.469 10.163-82.065 8.413-29.755-101.513c-4.916-9.782-19.665-6.285-19.665 4.663v110.319c-.002 9.714 13.138 26.042 43.834 26.042z" fill="#e0aea2"/><path d="m305.42 454.988c0-21.599-16.073-74.285-29.755-101.513 3.896 20.107 8.631 69.78 9.583 95.483.16 4.322 3.919 7.618 8.224 7.197z" fill="#d79b8c"/><path d="m467.644 480.531c-13.697-66.454-51.45-121.835-51.45-121.835-9.636-39.906-23.737-61.006-51.797-67.322l-18.366-4.134v42.859c0 17.452 3.781 34.696 11.083 50.547l6.455 14.012c4.117-6.195 7.413-14.17 7.413-21.361 0-4.41-1.275-8.789-3.451-12.531 6.501-4.947 10.7-12.763 10.7-21.562 0-7.069-2.711-13.504-7.147-18.327 4.053-2.929 7.421-6.738 9.862-11.131 5.272 10.703 9.616 25.837 14.649 46.478.391 1.602 1.037 3.13 1.923 4.519 7.135 11.181 41.011 66.153 49.608 115.013.804 4.57-2.76 8.745-7.4 8.745h-139.89c-30.696 0-43.836-6.328-43.836-16.043 0 23.049 15.239 36.043 43.836 36.043h148.201c12.64-.001 22.159-11.59 19.607-23.97z" fill="#d79b8c"/><path d="m430.007 434.677c-.422-4.121-4.105-7.119-8.226-6.696-2.201.226-22.695 2.327-40.929 4.196l6.633 14.399s31.705-3.25 35.825-3.673c4.122-.423 7.12-4.106 6.697-8.226z" fill="#d79b8c"/><path d="m236.335 353.475c-13.682 27.228-29.755 79.914-29.755 101.513l-82.065-8.413 41.455-139.335v-20l-18.366 4.134c-28.06 6.316-42.161 27.416-51.797 67.322 0 0-37.753 55.381-51.45 121.835 0 0 3.534 13.969 19.252 13.969h148.556c28.597 0 33.837-12.55 33.837-31.043 0-57.989 10-105.319 10-105.319-.002-10.947-14.751-14.445-19.667-4.663z" fill="#e0aea2"/><path d="m212.163 484.5s-129.304 0-148.556 0c-15.718 0-19.252-3.969-19.252-3.969-2.552 12.379 6.967 23.969 19.607 23.969h148.201c28.597 0 43.837-12.994 43.837-36.043v-110.319s-20 47.33-20 105.319c0 15.826-5.906 21.043-23.837 21.043z" fill="#d79b8c"/><path d="m145.969 330.099c0 10.623-.692 25.03-9.845 44.898l-25.377 55.088c-10.639-1.091-19.154-1.963-20.529-2.104-4.12-.422-7.803 2.576-8.226 6.696-.422 4.12 2.575 7.803 6.696 8.226 4.12.422 35.825 3.673 35.825 3.673l30.371-65.928c7.302-15.851 11.083-33.096 11.083-50.548v-22.86c-12.197 2.14-19.998 10.597-19.998 22.859z" fill="#d79b8c"/><path d="m340.531 350.766s7.7-9.518 7.7-21.562c0-7.069-2.711-13.504-7.147-18.327 8.567-6.191 14.146-16.259 14.146-27.636 0-8.823-13.356-26.859-18.858-32.91l-39.282 33.722c.26 11.042 5.76 20.782 14.122 26.824-4.436 4.823-7.147 11.258-7.147 18.327 0 8.799 4.199 16.615 10.7 21.562-2.176 3.741-3.451 8.121-3.451 12.531 0 8.762 4.892 18.681 10.201 25.133 16.159-7.055 22.467-18.083 22.467-27.133-.001-4.411-3.451-10.531-3.451-10.531z" fill="#faf0b0"/><path d="m365.229 283.241c0-10.149-4.441-19.256-11.479-25.5 6.977-6.189 11.402-15.192 11.478-25.234.145-18.892-15.812-44.349-34.705-44.349h-33.459v95.083c.326.237.453.33.779.568 2.05-.674 4.087-1.425 6.106-2.244 12.331-5.001 23.255-12.283 32.423-21.234 5.501 6.052 8.858 14.087 8.858 22.91 0 10.197-4.482 19.342-11.58 25.587-1.339 1.178-1.499 3.19-.461 4.641 3.173 4.435 5.041 9.866 5.041 15.735 0 9.104-3.828 16.764-5.697 19.962-.589 1.008-.646 2.23-.141 3.282 1.022 2.129 2.589 5.877 2.589 8.848 0 9.049-6.788 20.123-13.467 27.133 3.442 4.182 7.058 6.912 9.633 6.912 6.546 0 19.834-17.603 19.834-32.044 0-4.41-1.275-8.789-3.451-12.531 6.501-4.947 10.7-12.763 10.7-21.562 0-7.069-2.711-13.504-7.147-18.327 8.567-6.191 14.146-16.259 14.146-27.636z" fill="#ffe07d"/><path d="m220.033 35.51s10.316 23.219 77.032 56.553c10.086 5.039 29.384 15.273 40.609 24.645v-27.536c0-27.913-19.439-52.908-36.39-69.722-13.36-7.603-28.814-11.95-45.284-11.95-50.63 0-91.673 41.043-91.673 91.673v21.572s30.77-23.266 35.064-28.057c19.843-22.135 20.642-57.178 20.642-57.178z" fill="#faf0b0"/><path d="m301.282 19.451c16.951 16.814 26.39 41.809 26.39 69.722v3.3c0 2.716-2.949 4.382-5.289 3.002-8.326-4.91-17.012-9.261-25.32-13.412-25.008-12.495-60.698-27.585-69.755-50.035-1.343-3.331-4.86-5.246-8.384-4.557-3.525.684-6.071 3.771-6.071 7.362 0 28.677-10.108 44.597-36.997 72.5-4.464 4.633-8.344 8.94-11.53 13.411v40.385h183.346v-61.956c.001-34.159-18.684-63.952-46.39-79.722z" fill="#ffe07d"/><path d="m337.673 165.513-10-44.117c-31.146-26.199-89.334-36.934-105.319-76.562 0 68.876-58.027 77.208-58.027 116.295v4.383c0 41.917 24.88 80.298 63.724 96.052 9.09 3.687 18.551 6.015 27.949 6.015 35.864-2.951 81.673-49.839 81.673-102.066z" fill="#e0aea2"/><path d="m271 183.143c0 4.806-8.943 9.361-15 9.361s-15-4.555-15-9.361 6.716-24.639 15-24.639 15 19.833 15 24.639z" fill="#d79b8c"/><path d="m327.673 121.396v44.117c0 41.917-43.724 96.052-71.673 102.067 9.398 0 18.859-2.328 27.949-6.015 38.844-15.754 63.724-54.135 63.724-96.052v-4.383c0-17.239-7.993-29.634-20-39.734z" fill="#d79b8c"/></g><g><path d="m448.038 512h-28.454c-4.143 0-7.5-3.357-7.5-7.5s3.357-7.5 7.5-7.5h28.454c3.783 0 7.325-1.684 9.717-4.619 2.371-2.909 3.298-6.677 2.544-10.336-13.217-64.123-49.934-118.585-50.303-119.127-.509-.748-.88-1.583-1.092-2.462-8.583-35.539-20.055-53.081-39.927-59.999-1.934 4.24-4.573 8.152-7.822 11.55 2.981 5.192 4.575 11.101 4.575 17.196 0 8.817-3.264 17.074-9.112 23.403 1.22 3.433 1.855 7.024 1.863 10.62 1.488 4.865 3.318 9.666 5.444 14.283l28.129 61.058 30.492-3.126c4.123-.424 7.804 2.576 8.226 6.696.423 4.12-2.575 7.803-6.696 8.226l-117.892 12.086c-2.108.215-4.215-.472-5.79-1.894s-2.475-3.445-2.475-5.567c0-19.315-15.154-70.681-28.956-98.146-.848-1.685-2.229-1.755-3.244-1.512-1.013.24-2.22.922-2.22 2.808v110.318c0 18.939 12.226 28.543 36.337 28.543h89.747c4.143 0 7.5 3.357 7.5 7.5s-3.357 7.5-7.5 7.5h-89.747c-20.506 0-35.516-6.27-43.837-17.799-8.32 11.53-23.33 17.8-43.836 17.8h-148.201c-8.312 0-16.092-3.697-21.345-10.143-5.231-6.42-7.275-14.744-5.607-22.84 5.076-24.626 13.889-50.448 26.194-76.751 1.756-3.751 6.22-5.372 9.971-3.614 3.752 1.755 5.371 6.22 3.615 9.971-11.809 25.241-20.25 49.944-25.089 73.422-.754 3.659.173 7.427 2.544 10.336 2.392 2.936 5.934 4.619 9.717 4.619h148.201c24.111 0 36.337-9.604 36.337-28.543v-110.318c0-1.886-1.207-2.567-2.22-2.808-1.012-.243-2.397-.173-3.244 1.513-13.802 27.464-28.956 78.829-28.956 98.145 0 2.122-.899 4.146-2.475 5.567s-3.681 2.108-5.79 1.894l-117.891-12.087c-4.121-.423-7.119-4.105-6.696-8.226s4.114-7.118 8.226-6.696l30.493 3.126 28.128-61.058c6.8-14.764 10.395-31.157 10.395-47.41v-33.483l-9.218 2.074c-23.773 5.352-36.714 22.669-46.155 61.766-.212.88-.583 1.715-1.093 2.463-.043.063-4.491 6.622-10.759 17.685-2.042 3.604-6.622 4.872-10.222 2.829-3.604-2.041-4.871-6.618-2.829-10.223 5.116-9.031 9.041-15.146 10.639-17.574 5.249-21.302 11.602-36.477 19.95-47.679 9.359-12.559 21.52-20.376 37.174-23.9l61.479-13.839.001-10.925c-12.682-8.151-23.58-18.927-32.075-31.815-6.126-9.295-10.793-19.362-13.911-29.906-9.057-1.625-17.256-7.011-23.413-15.472-5.767-7.924-9.209-17.803-9.209-26.426 0-19.264 10.32-31.682 28-34.349v-22.152c0-29.631 13.1-57.479 35.938-76.401 3.188-2.643 7.917-2.199 10.561.99 2.643 3.189 2.199 7.918-.99 10.561-19.389 16.063-30.509 39.701-30.509 64.851v26.959c3.143-3.649 6.561-7.196 10.03-10.798 16.223-16.834 32.997-34.242 32.997-70.5 0-3.591 2.546-6.679 6.071-7.362 3.523-.689 7.041 1.226 8.384 4.557 9.057 22.45 34.915 35.371 59.923 47.866 18.889 9.438 38.151 19.062 50.94 33.026v-23.749c-.001-46.413-37.761-84.173-84.174-84.173-10.231 0-20.226 1.812-29.704 5.389-3.876 1.459-8.202-.494-9.665-4.37-1.462-3.876.495-8.203 4.37-9.665 11.178-4.216 22.952-6.354 34.999-6.354 54.685 0 99.173 44.488 99.173 99.173v22.152c17.68 2.667 28 15.085 28 34.349 0 13.557-8.787 32.524-24.981 39.606 8.784 10.288 14.538 24.351 14.538 36.961 0 9.294-3.125 18.258-8.747 25.5 5.623 7.241 8.747 16.205 8.747 25.5 0 .879-.028 1.753-.084 2.624 12.525 4.087 22.572 11.357 30.572 22.092 8.348 11.2 14.7 26.374 19.948 47.671 5.663 8.564 38.907 60.721 51.824 123.39 1.668 8.096-.376 16.42-5.607 22.84-5.253 6.445-13.033 10.142-21.345 10.142zm-282.912-68.801 34.519 3.539c2.069-17.577 9.632-46.53 19.355-72.104-19.664-7.084-30.764-20.615-30.764-37.926v-7.852c0-4.143 3.357-7.5 7.5-7.5s7.5 3.357 7.5 7.5v7.852c0 10.802 7.555 19.202 21.427 24.023 1.623-3.708 3.285-7.27 4.971-10.623 3.798-7.558 11.875-11.322 20.108-9.373 2.322.551 4.429 1.503 6.258 2.776 1.829-1.273 3.936-2.226 6.258-2.776 8.231-1.95 16.311 1.815 20.108 9.372 1.613 3.211 3.269 6.785 4.935 10.631 7.212-2.515 12.816-6.042 16.468-10.381-4.646-5.979-7.204-13.347-7.204-21.154 0-6.096 1.594-12.004 4.575-17.196-7.346-7.68-11.575-17.994-11.575-28.766v-15.906c-.926.405-1.857.799-2.797 1.18-10.741 4.356-21.094 6.565-30.768 6.565s-20.026-2.209-30.768-6.565c-.939-.381-1.871-.774-2.797-1.18v2.884c0 7.063-4.813 13.081-11.706 14.633l-7.493 1.688v12.317c0 4.143-3.357 7.5-7.5 7.5s-7.5-3.357-7.5-7.5v-8.941l-14.768 3.324v36.86c0 18.404-4.07 36.968-11.771 53.686l-5.086 11.042zm127.798-68.545c9.085 23.966 17.372 53.091 19.48 72.079l34.471-3.534 8.515-48.371-3.948-8.569c-5.547 9.395-13.459 16.582-20.294 16.582-10.674 0-23.973-17.523-26.794-33.617-3.416 2.099-7.241 3.918-11.43 5.43zm-157.207 65.531 13.898 1.425-4.024-22.86zm230.692-21.436-4.023 22.86 13.898-1.425zm-61.845-159.456v23.948c0 8.502 4.127 16.561 11.04 21.558 1.736 1.255 2.854 3.192 3.068 5.324.216 2.132-.491 4.254-1.942 5.831-3.331 3.622-5.166 8.327-5.166 13.249 0 6.166 2.821 11.85 7.741 15.595 3.012 2.291 3.844 6.468 1.941 9.738-1.57 2.699-2.435 5.811-2.435 8.761 0 10.007 8.5 21.54 12.335 24.19 3.835-2.65 12.334-14.185 12.334-24.19 0-2.951-.864-6.062-2.434-8.76-1.903-3.271-1.071-7.448 1.94-9.74 4.92-3.744 7.742-9.428 7.742-15.594 0-4.922-1.835-9.627-5.167-13.248-1.451-1.577-2.158-3.699-1.942-5.832.215-2.132 1.332-4.069 3.069-5.325 6.912-4.995 11.039-13.054 11.039-21.557 0-7.592-3.265-14.841-8.956-19.889-1.604-1.424-2.523-3.466-2.523-5.611s.918-4.188 2.523-5.61c5.691-5.05 8.956-12.299 8.956-19.89 0-8.562-4.077-18.659-10.072-26.16-2.878 7.466-6.562 14.635-11.018 21.396-8.492 12.889-19.391 23.665-32.073 31.816zm-73.695-4.679c8.943 3.627 17.398 5.466 25.131 5.466s16.188-1.839 25.131-5.466c17.552-7.118 32.416-19.356 42.984-35.392 10.505-15.938 16.058-34.512 16.058-53.71v-4.383c0-18.472-10.827-30.594-26.678-40.952-9.813-3.019-23.304-1.844-37.113 3.251-3.883 1.437-8.197-.555-9.632-4.44-1.434-3.886.554-8.198 4.44-9.632 3.818-1.409 9.003-3.057 14.938-4.242-1.192-.598-2.395-1.198-3.601-1.801-20.157-10.072-40.819-20.396-54.82-36.104-3.026 14.906-8.952 26.575-15.847 36.317 7.901.128 17.587 1.638 28.948 5.829 3.886 1.434 5.874 5.746 4.44 9.632-1.433 3.887-5.743 5.877-9.632 4.44-14.238-5.252-27.975-6.333-37.874-3.006-1.72 1.827-3.422 3.595-5.085 5.32-11.639 12.078-20.832 21.618-20.832 35.387v4.383c0 19.198 5.553 37.771 16.058 53.71 10.886 16.514 27.972 29.304 42.986 35.393zm124.304-118.063v28.962c0 5.02-.329 10.004-.98 14.922 9.109-5.412 13.98-17.792 13.98-24.761 0-10.856-4.171-17.072-13-19.123zm-198.346 0c-8.829 2.051-13 8.268-13 19.123 0 6.969 4.871 19.349 13.98 24.761-.651-4.918-.98-9.902-.98-14.922zm99.173 90.435c-11.6 0-23.199-1.948-32.879-5.846-3.843-1.547-5.703-5.915-4.156-9.758 1.546-3.843 5.917-5.705 9.758-4.156 15.807 6.363 38.748 6.363 54.555 0 3.842-1.549 8.211.313 9.758 4.156s-.313 8.211-4.156 9.758c-9.681 3.898-21.28 5.846-32.88 5.846zm0-26.981c-9.174 0-22.5-6.568-22.5-16.861 0-6.137 7.499-32.139 22.5-32.139s22.5 26.002 22.5 32.139c0 10.293-13.326 16.861-22.5 16.861zm-7.384-17.801c1.388 1.205 4.908 2.801 7.384 2.801 2.479 0 6.008-1.601 7.391-2.807-.714-4.292-4.564-13.371-7.391-15.839-2.816 2.46-6.649 11.488-7.384 15.845zm48.987-23.633c-5.596 0-11.191-1.226-15.653-3.677-3.631-1.994-4.957-6.554-2.963-10.184 1.993-3.631 6.552-4.96 10.184-2.963 4.414 2.424 12.451 2.424 16.865 0 3.628-1.997 8.19-.668 10.184 2.963 1.994 3.63.668 8.189-2.963 10.184-4.463 2.452-10.059 3.677-15.654 3.677zm-83.206 0c-5.596 0-11.191-1.226-15.653-3.677-3.631-1.994-4.957-6.554-2.963-10.184 1.993-3.631 6.552-4.96 10.184-2.963 4.414 2.424 12.451 2.424 16.865 0 3.628-1.997 8.19-.668 10.184 2.963 1.994 3.63.668 8.189-2.963 10.184-4.462 2.452-10.058 3.677-15.654 3.677z"/></g></g></svg>