<?xml version="1.0" encoding="UTF-8"?>
<svg xmlns="http://www.w3.org/2000/svg" xmlns:xlink="http://www.w3.org/1999/xlink" width="54pt" height="33.749998pt" viewBox="0 0 54 33.749998" version="1.2">
<defs>
<clipPath id="clip1">
  <path d="M 44 0.199219 L 53.800781 0.199219 L 53.800781 33.5 L 44 33.5 Z M 44 0.199219 "/>
</clipPath>
<clipPath id="clip2">
  <path d="M 43 0.199219 L 53.800781 0.199219 L 53.800781 33.5 L 43 33.5 Z M 43 0.199219 "/>
</clipPath>
<clipPath id="clip3">
  <path d="M 0.199219 0.199219 L 49 0.199219 L 49 33.5 L 0.199219 33.5 Z M 0.199219 0.199219 "/>
</clipPath>
</defs>
<g id="surface1">
<g clip-path="url(#clip1)" clip-rule="nonzero">
<path style=" stroke:none;fill-rule:nonzero;fill:rgb(22.749329%,71.369934%,34.509277%);fill-opacity:1;" d="M 49.578125 0.441406 L 44.054688 0.441406 C 46.261719 0.441406 48.054688 2.253906 48.054688 4.492188 L 48.054688 29.609375 C 48.054688 31.847656 46.261719 33.660156 44.054688 33.660156 L 49.578125 33.660156 C 51.789062 33.660156 53.582031 31.847656 53.582031 29.609375 L 53.582031 4.492188 C 53.582031 2.253906 51.789062 0.441406 49.578125 0.441406 "/>
</g>
<g clip-path="url(#clip2)" clip-rule="nonzero">
<path style="fill:none;stroke-width:28.346001;stroke-linecap:round;stroke-linejoin:round;stroke:rgb(13.729858%,12.159729%,12.548828%);stroke-opacity:1;stroke-miterlimit:10;" d="M 3563.170807 3169.974792 L 3211.586153 3169.974792 C 3352.070827 3169.974792 3466.199085 3056.040956 3466.199085 2915.34249 L 3466.199085 1336.474887 C 3466.199085 1195.776422 3352.070827 1081.842585 3211.586153 1081.842585 L 3563.170807 1081.842585 C 3703.904126 1081.842585 3818.032384 1195.776422 3818.032384 1336.474887 L 3818.032384 2915.34249 C 3818.032384 3056.040956 3703.904126 3169.974792 3563.170807 3169.974792 Z M 3563.170807 3169.974792 " transform="matrix(0.0157101,0,0,-0.0159084,-6.39972,50.870493)"/>
</g>
<g clip-path="url(#clip3)" clip-rule="nonzero">
<path style=" stroke:none;fill-rule:nonzero;fill:rgb(43.139648%,79.60968%,53.729248%);fill-opacity:1;" d="M 48.054688 29.609375 C 48.054688 31.847656 46.261719 33.660156 44.054688 33.660156 L 4.421875 33.660156 C 2.210938 33.660156 0.421875 31.847656 0.421875 29.609375 L 0.421875 4.492188 C 0.421875 2.253906 2.210938 0.441406 4.421875 0.441406 L 44.054688 0.441406 C 46.261719 0.441406 48.054688 2.253906 48.054688 4.492188 L 48.054688 29.609375 "/>
<path style="fill:none;stroke-width:28.346001;stroke-linecap:round;stroke-linejoin:round;stroke:rgb(13.729858%,12.159729%,12.548828%);stroke-opacity:1;stroke-miterlimit:10;" d="M 3466.199085 1336.474887 C 3466.199085 1195.776422 3352.070827 1081.842585 3211.586153 1081.842585 L 688.829507 1081.842585 C 548.096187 1081.842585 434.216575 1195.776422 434.216575 1336.474887 L 434.216575 2915.34249 C 434.216575 3056.040956 548.096187 3169.974792 688.829507 3169.974792 L 3211.586153 3169.974792 C 3352.070827 3169.974792 3466.199085 3056.040956 3466.199085 2915.34249 Z M 3466.199085 1336.474887 " transform="matrix(0.0157101,0,0,-0.0159084,-6.39972,50.870493)"/>
</g>
<path style=" stroke:none;fill-rule:nonzero;fill:rgb(100%,100%,100%);fill-opacity:1;" d="M 44.507812 24.144531 L 44.507812 22.125 L 24.085938 22.125 L 24.085938 24.144531 L 44.507812 24.144531 "/>
<path style="fill:none;stroke-width:28.346001;stroke-linecap:round;stroke-linejoin:round;stroke:rgb(13.729858%,12.159729%,12.548828%);stroke-opacity:1;stroke-miterlimit:10;" d="M 1940.510658 1679.995226 L 3240.429024 1679.995226 L 3240.429024 1806.943056 L 1940.510658 1806.943056 Z M 1940.510658 1679.995226 " transform="matrix(0.0157101,0,0,-0.0159084,-6.39972,50.870493)"/>
<path style=" stroke:none;fill-rule:nonzero;fill:rgb(100%,100%,100%);fill-opacity:1;" d="M 36.410156 28.085938 L 36.410156 26.066406 L 24.085938 26.066406 L 24.085938 28.085938 L 36.410156 28.085938 "/>
<path style="fill:none;stroke-width:28.346001;stroke-linecap:round;stroke-linejoin:round;stroke:rgb(13.729858%,12.159729%,12.548828%);stroke-opacity:1;stroke-miterlimit:10;" d="M 1940.510658 1432.238241 L 2724.987024 1432.238241 L 2724.987024 1559.186072 L 1940.510658 1559.186072 Z M 1940.510658 1432.238241 " transform="matrix(0.0157101,0,0,-0.0159084,-6.39972,50.870493)"/>
<path style=" stroke:none;fill-rule:nonzero;fill:rgb(100%,100%,100%);fill-opacity:1;" d="M 22.003906 5.105469 L 5.097656 5.105469 L 5.097656 29.945312 L 22.003906 29.945312 L 22.003906 5.105469 "/>
<path style="fill:none;stroke-width:28.346001;stroke-linecap:round;stroke-linejoin:round;stroke:rgb(13.729858%,12.159729%,12.548828%);stroke-opacity:1;stroke-miterlimit:10;" d="M 731.845168 1315.35784 L 1807.982638 1315.35784 L 1807.982638 2876.791601 L 731.845168 2876.791601 Z M 731.845168 1315.35784 " transform="matrix(0.0157101,0,0,-0.0159084,-6.39972,50.870493)"/>
<path style=" stroke:none;fill-rule:nonzero;fill:rgb(96.859741%,56.858826%,45.878601%);fill-opacity:1;" d="M 13.625 16.90625 L 11.59375 16.90625 L 11.59375 19.992188 C 11.59375 19.992188 12.433594 21.6875 13.625 21.6875 C 14.777344 21.6875 15.65625 20.085938 15.65625 20.085938 L 15.65625 16.90625 L 13.625 16.90625 "/>
<path style="fill:none;stroke-width:28.346001;stroke-linecap:round;stroke-linejoin:round;stroke:rgb(13.729858%,12.159729%,12.548828%);stroke-opacity:1;stroke-miterlimit:10;" d="M 1274.638166 2134.99393 L 1145.342537 2134.99393 L 1145.342537 1941.011752 C 1145.342537 1941.011752 1198.801307 1834.444327 1274.638166 1834.444327 C 1347.988571 1834.444327 1403.933796 1935.118622 1403.933796 1935.118622 L 1403.933796 2134.99393 Z M 1274.638166 2134.99393 " transform="matrix(0.0157101,0,0,-0.0159084,-6.39972,50.870493)"/>
<path style=" stroke:none;fill-rule:nonzero;fill:rgb(96.859741%,56.858826%,45.878601%);fill-opacity:1;" d="M 17.4375 13.257812 C 17.339844 13.234375 17.261719 13.261719 17.195312 13.316406 C 17.199219 13.253906 17.199219 13.191406 17.199219 13.125 C 17.199219 11.589844 16.753906 10.613281 16.171875 9.996094 L 10.515625 9.996094 C 9.824219 10.683594 9.410156 11.753906 9.367188 13.378906 C 9.289062 13.285156 9.191406 13.226562 9.0625 13.257812 C 8.671875 13.351562 8.707031 14.429688 9.0625 14.957031 C 9.304688 15.324219 9.476562 15.355469 9.558594 15.34375 C 10.195312 17.925781 12.214844 19.46875 13.488281 19.46875 C 14.730469 19.46875 16.410156 18.207031 16.992188 15.34375 C 17.082031 15.335938 17.234375 15.261719 17.4375 14.957031 C 17.789062 14.429688 17.824219 13.351562 17.4375 13.257812 "/>
<path style="fill:none;stroke-width:28.346001;stroke-linecap:round;stroke-linejoin:round;stroke:rgb(13.729858%,12.159729%,12.548828%);stroke-opacity:1;stroke-miterlimit:10;" d="M 1517.316117 2364.334885 C 1511.099981 2365.808167 1506.127072 2364.089338 1501.900099 2360.651679 C 1502.148745 2364.580432 1502.148745 2368.509185 1502.148745 2372.683485 C 1502.148745 2469.18348 1473.803165 2530.570245 1436.754994 2569.366681 L 1076.716395 2569.366681 C 1032.706152 2526.150398 1006.349735 2458.870503 1003.614635 2356.722926 C 998.641727 2362.616055 992.425591 2366.299261 984.220291 2364.334885 C 959.355747 2358.441755 961.593556 2290.670767 984.220291 2257.521913 C 999.636308 2234.44049 1010.576708 2232.476113 1015.798262 2233.212754 C 1056.327469 2070.906147 1184.877162 1973.915058 1265.935576 1973.915058 C 1345.004826 1973.915058 1451.922366 2053.226759 1488.970537 2233.212754 C 1494.689382 2233.703848 1504.386554 2238.369243 1517.316117 2257.521913 C 1539.694207 2290.670767 1541.932016 2358.441755 1517.316117 2364.334885 Z M 1517.316117 2364.334885 " transform="matrix(0.0157101,0,0,-0.0159084,-6.39972,50.870493)"/>
<path style=" stroke:none;fill-rule:nonzero;fill:rgb(16.468811%,12.939453%,11.759949%);fill-opacity:1;" d="M 17.507812 10.957031 C 17.464844 9.1875 16.503906 9.003906 15.867188 8.765625 C 15.542969 8.648438 16.398438 8.316406 16.398438 8.316406 C 15.613281 7.667969 14.953125 8.148438 14.503906 8.015625 C 13.773438 7.804688 14.75 7.347656 14.75 7.347656 C 13.644531 7.054688 13.53125 7.683594 13.144531 7.6875 C 12.484375 7.695312 13.355469 6.921875 13.355469 6.921875 C 10.789062 7.222656 10.136719 9.421875 10.136719 9.421875 C 9.886719 9.363281 10.023438 8.730469 10.023438 8.730469 C 8.730469 10.285156 9.296875 13.539062 9.296875 13.539062 C 9.296875 13.539062 9.300781 13.507812 9.3125 13.457031 C 9.316406 13.664062 9.328125 13.789062 9.328125 13.789062 C 9.585938 13.875 9.8125 13.765625 9.8125 13.015625 C 9.8125 11.8125 11.757812 11.160156 13.328125 11.148438 C 14.910156 11.140625 16.777344 11.980469 16.777344 13.015625 C 16.777344 13.765625 16.941406 13.875 17.199219 13.789062 C 17.199219 13.789062 17.214844 13.625 17.214844 13.351562 C 17.316406 13.011719 17.53125 12.125 17.507812 10.957031 "/>
<path style="fill:none;stroke-width:28.346001;stroke-linecap:round;stroke-linejoin:round;stroke:rgb(13.729858%,12.159729%,12.548828%);stroke-opacity:1;stroke-miterlimit:10;" d="M 1521.791735 2508.962104 C 1519.056635 2620.194922 1457.889856 2631.735634 1417.36065 2646.714005 C 1396.723078 2654.080417 1451.17643 2674.951917 1451.17643 2674.951917 C 1401.198696 2715.712729 1359.177616 2685.510441 1330.583391 2693.859041 C 1284.086693 2707.118582 1346.248053 2735.847588 1346.248053 2735.847588 C 1275.881394 2754.263618 1268.670676 2714.730541 1244.054777 2714.484994 C 1202.033697 2713.9939 1257.481631 2762.612218 1257.481631 2762.612218 C 1094.121576 2743.705094 1052.597787 2605.462099 1052.597787 2605.462099 C 1036.684479 2609.145305 1045.38707 2648.923929 1045.38707 2648.923929 C 963.085429 2551.196198 999.139018 2346.655496 999.139018 2346.655496 C 999.139018 2346.655496 999.387663 2348.619873 1000.133599 2351.811985 C 1000.382245 2338.797991 1001.128181 2330.940485 1001.128181 2330.940485 C 1017.53878 2325.538449 1031.960216 2332.413767 1031.960216 2379.558803 C 1031.960216 2455.187297 1155.785645 2496.193657 1255.741113 2496.930298 C 1356.442516 2497.421392 1475.295037 2444.628774 1475.295037 2379.558803 C 1475.295037 2332.413767 1485.738146 2325.538449 1502.148745 2330.940485 C 1502.148745 2330.940485 1503.143327 2341.253461 1503.143327 2358.441755 C 1509.608108 2379.80435 1523.283607 2435.543533 1521.791735 2508.962104 Z M 1521.791735 2508.962104 " transform="matrix(0.0157101,0,0,-0.0159084,-6.39972,50.870493)"/>
<path style=" stroke:none;fill-rule:nonzero;fill:rgb(24.708557%,25.099182%,25.878906%);fill-opacity:1;" d="M 18.34375 20.933594 C 18.34375 20.933594 19.21875 20.847656 19.933594 22.789062 C 20.589844 24.566406 20.355469 29.933594 20.355469 29.933594 L 18.3125 29.933594 L 18.34375 20.933594 "/>
<path style="fill:none;stroke-width:28.346001;stroke-linecap:round;stroke-linejoin:round;stroke:rgb(13.729858%,12.159729%,12.548828%);stroke-opacity:1;stroke-miterlimit:10;" d="M 1575.001859 1881.83491 C 1575.001859 1881.83491 1630.698438 1887.236945 1676.200554 1765.200056 C 1717.972988 1653.476143 1703.054261 1316.094481 1703.054261 1316.094481 L 1573.012696 1316.094481 Z M 1575.001859 1881.83491 " transform="matrix(0.0157101,0,0,-0.0159084,-6.39972,50.870493)"/>
<path style=" stroke:none;fill-rule:nonzero;fill:rgb(24.708557%,25.099182%,25.878906%);fill-opacity:1;" d="M 8.761719 20.933594 C 8.761719 20.933594 7.886719 20.847656 7.171875 22.789062 C 6.515625 24.566406 6.75 29.933594 6.75 29.933594 L 8.792969 29.933594 L 8.761719 20.933594 "/>
<path style="fill:none;stroke-width:28.346001;stroke-linecap:round;stroke-linejoin:round;stroke:rgb(13.729858%,12.159729%,12.548828%);stroke-opacity:1;stroke-miterlimit:10;" d="M 965.074592 1881.83491 C 965.074592 1881.83491 909.378013 1887.236945 863.875898 1765.200056 C 822.103463 1653.476143 837.02219 1316.094481 837.02219 1316.094481 L 967.063756 1316.094481 Z M 965.074592 1881.83491 " transform="matrix(0.0157101,0,0,-0.0159084,-6.39972,50.870493)"/>
<path style=" stroke:none;fill-rule:nonzero;fill:rgb(37.649536%,38.42926%,39.608765%);fill-opacity:1;" d="M 8.75 29.945312 L 8.75 20.96875 L 11.242188 20.117188 L 13.597656 21.339844 L 15.898438 20.117188 L 18.394531 20.96875 L 18.394531 29.945312 L 8.75 29.945312 "/>
<path style="fill:none;stroke-width:28.346001;stroke-linecap:round;stroke-linejoin:round;stroke:rgb(13.729858%,12.159729%,12.548828%);stroke-opacity:1;stroke-miterlimit:10;" d="M 964.328656 1315.35784 L 964.328656 1879.624986 L 1122.964447 1933.154246 L 1272.897648 1856.298016 L 1419.349813 1933.154246 L 1578.23425 1879.624986 L 1578.23425 1315.35784 Z M 964.328656 1315.35784 " transform="matrix(0.0157101,0,0,-0.0159084,-6.39972,50.870493)"/>
<path style=" stroke:none;fill-rule:nonzero;fill:rgb(88.238525%,88.238525%,89.019775%);fill-opacity:1;" d="M 13.605469 21.042969 C 13.605469 21.042969 14.765625 20.816406 15.644531 19.972656 L 15.96875 19.96875 L 15.058594 22.34375 L 13.605469 21.375 L 13.605469 21.042969 "/>
<path style="fill:none;stroke-width:28.346001;stroke-linecap:round;stroke-linejoin:round;stroke:rgb(13.729858%,12.159729%,12.548828%);stroke-opacity:1;stroke-miterlimit:10;" d="M 1273.394939 1874.959592 C 1273.394939 1874.959592 1347.242635 1889.201322 1403.187859 1942.239487 L 1423.825431 1942.485034 L 1365.891043 1793.192421 L 1273.394939 1854.088092 Z M 1273.394939 1874.959592 " transform="matrix(0.0157101,0,0,-0.0159084,-6.39972,50.870493)"/>
<path style=" stroke:none;fill-rule:nonzero;fill:rgb(91.369629%,91.369629%,90.589905%);fill-opacity:1;" d="M 13.609375 21.042969 C 13.609375 21.042969 12.453125 20.816406 11.570312 19.972656 L 11.25 19.96875 L 12.160156 22.34375 L 13.609375 21.375 L 13.609375 21.042969 "/>
<path style="fill:none;stroke-width:28.346001;stroke-linecap:round;stroke-linejoin:round;stroke:rgb(13.729858%,12.159729%,12.548828%);stroke-opacity:1;stroke-miterlimit:10;" d="M 1273.643585 1874.959592 C 1273.643585 1874.959592 1200.044534 1889.201322 1143.850664 1942.239487 L 1123.461738 1942.485034 L 1181.396126 1793.192421 L 1273.643585 1854.088092 Z M 1273.643585 1874.959592 " transform="matrix(0.0157101,0,0,-0.0159084,-6.39972,50.870493)"/>
<path style=" stroke:none;fill-rule:nonzero;fill:rgb(100%,100%,100%);fill-opacity:1;" d="M 42.613281 11.953125 C 42.613281 16.277344 39.152344 19.785156 34.882812 19.785156 C 30.613281 19.785156 27.148438 16.277344 27.148438 11.953125 C 27.148438 7.628906 30.613281 4.125 34.882812 4.125 C 39.152344 4.125 42.613281 7.628906 42.613281 11.953125 "/>
<path style="fill:none;stroke-width:28.346001;stroke-linecap:round;stroke-linejoin:round;stroke:rgb(13.729858%,12.159729%,12.548828%);stroke-opacity:1;stroke-miterlimit:10;" d="M 3119.835985 2446.347603 C 3119.835985 2174.527007 2899.536124 1954.025746 2627.766657 1954.025746 C 2355.99719 1954.025746 2135.448684 2174.527007 2135.448684 2446.347603 C 2135.448684 2718.1682 2355.99719 2938.423914 2627.766657 2938.423914 C 2899.536124 2938.423914 3119.835985 2718.1682 3119.835985 2446.347603 Z M 3119.835985 2446.347603 " transform="matrix(0.0157101,0,0,-0.0159084,-6.39972,50.870493)"/>
<path style=" stroke:none;fill-rule:nonzero;fill:rgb(93.328857%,15.689087%,14.898682%);fill-opacity:1;" d="M 36.367188 15.441406 C 36.367188 16.273438 35.703125 16.949219 34.882812 16.949219 C 34.0625 16.949219 33.394531 16.273438 33.394531 15.441406 C 33.394531 14.609375 34.0625 13.9375 34.882812 13.9375 C 35.703125 13.9375 36.367188 14.609375 36.367188 15.441406 "/>
<path style="fill:none;stroke-width:28.346001;stroke-linecap:round;stroke-linejoin:round;stroke:rgb(13.729858%,12.159729%,12.548828%);stroke-opacity:1;stroke-miterlimit:10;" d="M 2722.251925 2227.074078 C 2722.251925 2174.772554 2679.9822 2132.292912 2627.766657 2132.292912 C 2575.551114 2132.292912 2533.032744 2174.772554 2533.032744 2227.074078 C 2533.032744 2279.375602 2575.551114 2321.609696 2627.766657 2321.609696 C 2679.9822 2321.609696 2722.251925 2279.375602 2722.251925 2227.074078 Z M 2722.251925 2227.074078 " transform="matrix(0.0157101,0,0,-0.0159084,-6.39972,50.870493)"/>
<path style=" stroke:none;fill-rule:nonzero;fill:rgb(93.328857%,15.689087%,14.898682%);fill-opacity:1;" d="M 40.230469 10.121094 C 38.800781 8.675781 36.902344 7.878906 34.882812 7.878906 C 32.859375 7.878906 30.960938 8.675781 29.53125 10.121094 C 29.316406 10.34375 29.113281 10.574219 28.929688 10.8125 L 29.785156 11.714844 C 30.941406 10.136719 32.796875 9.113281 34.882812 9.113281 C 36.96875 9.113281 38.820312 10.136719 39.976562 11.714844 L 40.835938 10.8125 C 40.648438 10.574219 40.445312 10.34375 40.230469 10.121094 "/>
<path style="fill:none;stroke-width:28.346001;stroke-linecap:round;stroke-linejoin:round;stroke:rgb(13.729858%,12.159729%,12.548828%);stroke-opacity:1;stroke-miterlimit:10;" d="M 2968.162266 2561.509175 C 2877.158034 2652.361587 2756.31635 2702.453188 2627.766657 2702.453188 C 2498.968318 2702.453188 2378.126634 2652.361587 2287.122403 2561.509175 C 2273.446903 2547.512992 2260.51734 2533.025716 2248.831005 2518.047345 L 2303.284356 2461.325974 C 2376.883407 2560.526987 2494.989991 2624.860317 2627.766657 2624.860317 C 2760.543323 2624.860317 2878.401262 2560.526987 2952.000312 2461.325974 L 3006.702309 2518.047345 C 2994.767328 2533.025716 2981.837765 2547.512992 2968.162266 2561.509175 Z M 2968.162266 2561.509175 " transform="matrix(0.0157101,0,0,-0.0159084,-6.39972,50.870493)"/>
<path style=" stroke:none;fill-rule:nonzero;fill:rgb(93.328857%,15.689087%,14.898682%);fill-opacity:1;" d="M 38.914062 11.457031 C 37.835938 10.367188 36.402344 9.765625 34.882812 9.765625 C 33.359375 9.765625 31.925781 10.367188 30.851562 11.457031 C 30.621094 11.683594 30.417969 11.929688 30.234375 12.191406 L 31.101562 13.101562 C 31.898438 11.839844 33.292969 11 34.882812 11 C 36.46875 11 37.863281 11.839844 38.660156 13.101562 L 39.527344 12.191406 C 39.34375 11.929688 39.140625 11.683594 38.914062 11.457031 "/>
<path style="fill:none;stroke-width:28.346001;stroke-linecap:round;stroke-linejoin:round;stroke:rgb(13.729858%,12.159729%,12.548828%);stroke-opacity:1;stroke-miterlimit:10;" d="M 2884.368752 2477.53208 C 2815.74261 2546.03971 2724.489734 2583.853957 2627.766657 2583.853957 C 2530.794935 2583.853957 2439.542058 2546.03971 2371.164562 2477.53208 C 2356.494481 2463.29035 2343.564918 2447.820886 2331.878582 2431.369233 L 2387.07787 2374.156767 C 2437.80154 2453.468468 2526.567962 2506.261086 2627.766657 2506.261086 C 2728.716706 2506.261086 2817.483129 2453.468468 2868.206799 2374.156767 L 2923.406087 2431.369233 C 2911.719751 2447.820886 2898.790188 2463.29035 2884.368752 2477.53208 Z M 2884.368752 2477.53208 " transform="matrix(0.0157101,0,0,-0.0159084,-6.39972,50.870493)"/>
<path style=" stroke:none;fill-rule:nonzero;fill:rgb(93.328857%,15.689087%,14.898682%);fill-opacity:1;" d="M 34.882812 11.699219 C 33.480469 11.699219 32.25 12.476562 31.59375 13.625 L 32.492188 14.570312 C 32.875 13.613281 33.800781 12.933594 34.882812 12.933594 C 35.960938 12.933594 36.890625 13.613281 37.269531 14.570312 L 38.167969 13.625 C 37.511719 12.476562 36.285156 11.699219 34.882812 11.699219 "/>
<path style="fill:none;stroke-width:28.346001;stroke-linecap:round;stroke-linejoin:round;stroke:rgb(13.729858%,12.159729%,12.548828%);stroke-opacity:1;stroke-miterlimit:10;" d="M 2627.766657 2462.308162 C 2538.502944 2462.308162 2460.17963 2413.444297 2418.407196 2341.253461 L 2475.595647 2281.831072 C 2499.9629 2341.990102 2558.89187 2384.715291 2627.766657 2384.715291 C 2696.392799 2384.715291 2755.570414 2341.990102 2779.689022 2281.831072 L 2836.877473 2341.253461 C 2795.105039 2413.444297 2717.03037 2462.308162 2627.766657 2462.308162 Z M 2627.766657 2462.308162 " transform="matrix(0.0157101,0,0,-0.0159084,-6.39972,50.870493)"/>
</g>
</svg>
