<svg id="Capa_1" enable-background="new 0 0 512 512" height="25" viewBox="0 0 512 512" width="25" xmlns="http://www.w3.org/2000/svg" xmlns:xlink="http://www.w3.org/1999/xlink"><linearGradient id="SVGID_1_" gradientUnits="userSpaceOnUse" x1="256" x2="256" y1="512" y2="0"><stop offset="0" stop-color="#5558ff"/><stop offset="1" stop-color="#00c0ff"/></linearGradient><linearGradient id="SVGID_2_" gradientUnits="userSpaceOnUse" x1="226" x2="226" y1="391" y2="0"><stop offset="0" stop-color="#addcff"/><stop offset=".5028" stop-color="#eaf6ff"/><stop offset="1" stop-color="#eaf6ff"/></linearGradient><g><g><g><path d="m406 0h-195l-120 120v377c0 8.291 6.709 15 15 15h300c8.291 0 15-6.709 15-15v-482c0-8.291-6.709-15-15-15z" fill="#fc4103"/></g></g><g><g><path d="m346 361h-180c-8.291 0-15 6.709-15 15s6.709 15 15 15h180c8.291 0 15-6.709 15-15s-6.709-15-15-15zm-150-210c-3.984 0-7.793 1.582-10.605 4.395l-30 30c-5.859 5.859-5.859 15.352 0 21.211l90 90c2.93 2.93 6.768 4.395 10.605 4.395s7.676-1.465 10.605-4.395l90-90c5.859-5.859 5.859-15.352 0-21.211l-30-30c-2.812-2.813-6.621-4.395-10.605-4.395h-45v45c0 8.291-6.709 15-15 15s-15-6.709-15-15v-45zm15-46v-105h-15c-3.984 0-7.793 1.582-10.605 4.395l-90 90c-2.813 2.812-4.395 6.621-4.395 10.605v15h105c8.291 0 15-6.709 15-15z" fill="url(#SVGID_2_)"/></g></g></g></svg>