<svg id="call" xmlns="http://www.w3.org/2000/svg" width="14.818" height="14.818" viewBox="0 0 14.818 14.818">
<g id="Grupo_68" data-name="Grupo 68" transform="translate(0 0)">
<path id="Caminho_35" data-name="Caminho 35" d="M13.629,9.726a8.413,8.413,0,0,1-2.642-.421,1.208,1.208,0,0,0-1.175.248L8.146,10.811a9.208,9.208,0,0,1-4.14-4.139L5.227,5.049a1.2,1.2,0,0,0,.295-1.214A8.426,8.426,0,0,1,5.1,1.189,1.19,1.19,0,0,0,3.91,0H1.189A1.19,1.19,0,0,0,0,1.189,13.644,13.644,0,0,0,13.629,14.818a1.19,1.19,0,0,0,1.189-1.189V10.915A1.19,1.19,0,0,0,13.629,9.726Z" transform="translate(0 0)" fill="#009FE3"></path>
</g>
</svg>